<?xml version="1.0" encoding="UTF-8"?>
<svg version="1.1" xmlns="http://www.w3.org/2000/svg" width="2147" height="1955">
<path d="M0 0 C0.69762451 0.64767334 1.39524902 1.29534668 2.11401367 1.96264648 C2.7645874 2.56455811 3.41516113 3.16646973 4.08544922 3.78662109 C8.59038 8.020596 12.66150315 12.51622484 16.67651367 17.21264648 C17.62503238 18.28473368 18.57543849 19.35515516 19.52807617 20.42358398 C79.27393742 88.20375581 101.22187984 178.65862284 103.61352539 267.04321289 C103.66671518 268.87516835 103.74847395 270.70626112 103.83666992 272.53686523 C104.71396706 299.88564992 95.04624749 326.31937531 76.70385742 346.53295898 C69.4953298 354.2115355 61.81801831 360.02507984 52.67651367 365.21264648 C51.23211914 366.04022461 51.23211914 366.04022461 49.75854492 366.88452148 C-8.14221508 397.87141098 -84.91250073 379.06379937 -144.06958008 361.35717773 C-214.59722529 339.96827655 -281.75653921 308.36530401 -347.36694336 275.15429688 C-361.20406198 268.16715192 -375.18539542 261.56870759 -389.32348633 255.21264648 C-389.96985016 314.28994377 -384.56136175 374.23795167 -361.32348633 429.21264648 C-360.92291016 430.16059082 -360.52233398 431.10853516 -360.10961914 432.08520508 C-347.19206258 462.22781509 -329.79372878 488.39803055 -307.32348633 512.21264648 C-306.52168945 513.06858398 -305.71989258 513.92452148 -304.89379883 514.80639648 C-298.24896044 521.69088478 -290.95737801 527.4851533 -283.32348633 533.21264648 C-282.48043945 533.85484131 -282.48043945 533.85484131 -281.62036133 534.51000977 C-272.0647546 541.76322877 -261.95581213 547.67740453 -251.32348633 553.21264648 C-250.65542969 553.56568848 -249.98737305 553.91873047 -249.29907227 554.2824707 C-193.78556055 583.28890541 -121.81528474 585.67052071 -62.52099609 567.66894531 C-47.14990742 562.80141174 -32.58535811 556.72525756 -18.32348633 549.21264648 C-17.66203613 548.86862793 -17.00058594 548.52460937 -16.3190918 548.17016602 C-5.51253448 542.50958837 4.14655961 535.81245141 13.67651367 528.21264648 C14.22871582 527.77758789 14.78091797 527.3425293 15.34985352 526.89428711 C30.53106259 514.85385692 44.2766303 500.87497627 55.67651367 485.21264648 C56.53300433 484.06269817 57.389778 482.9129606 58.24682617 481.76342773 C67.67264183 468.97995656 75.35325608 455.28048463 82.67651367 441.21264648 C87.07380747 441.99489391 90.62210812 443.38418908 94.67651367 445.21264648 C94.12735358 450.54760654 93.2047597 455.28352195 91.52416992 460.40405273 C91.3087706 461.06281403 91.09337128 461.72157532 90.8714447 462.40029907 C90.17055741 464.52870004 89.45645681 466.65227281 88.73901367 468.77514648 C88.49352783 469.50673981 88.24804199 470.23833313 87.99511719 470.99209595 C83.59212921 484.06618362 78.58861266 496.73964288 72.67651367 509.21264648 C72.24902832 510.1251416 71.82154297 511.03763672 71.38110352 511.9777832 C51.02067951 555.13524365 19.85053425 597.16719604 -18.32348633 626.21264648 C-19.67952941 627.29363012 -21.03350987 628.37720377 -22.38598633 629.46264648 C-32.31000631 637.38110409 -42.46123794 644.6390528 -53.32348633 651.21264648 C-54.11029785 651.68911621 -54.89710938 652.16558594 -55.70776367 652.65649414 C-136.18628521 700.91816434 -232.92733841 715.49500768 -381.02026367 694.06030273 C-437.82127984 679.48431396 -490.85243023 654.41147822 -536.32348633 617.21264648 C-536.86521484 616.77533203 -537.40694336 616.33801758 -537.96508789 615.88745117 C-547.42550194 608.19911231 -556.06646644 599.67798849 -564.69848633 591.08764648 C-565.25661011 590.53478973 -565.81473389 589.98193298 -566.38977051 589.412323 C-573.50598854 582.3480644 -580.1167749 575.10640089 -586.32348633 567.21264648 C-587.26454346 566.0550522 -588.20699276 564.89858641 -589.15161133 563.74389648 C-600.36779384 549.70557773 -610.43760918 534.82925756 -619.32348633 519.21264648 C-619.77546387 518.42615723 -620.22744141 517.63966797 -620.69311523 516.8293457 C-649.7937468 465.92510238 -665.50799923 408.47077133 -670.32348633 350.21264648 C-670.41847412 349.07255127 -670.51346191 347.93245605 -670.61132812 346.7578125 C-671.44203445 335.37381302 -671.509631 324.00011148 -671.50878906 312.58935547 C-671.51096192 309.31195811 -671.52914871 306.03490599 -671.5480957 302.75756836 C-671.60090089 283.16261981 -670.43590824 263.66267689 -667.51098633 244.27514648 C-667.34501953 243.13980469 -667.17905273 242.00446289 -667.00805664 240.8347168 C-665.16215073 228.55690223 -662.80036001 216.37684836 -660.32348633 204.21264648 C-704.89888644 213.56456794 -746.13475747 232.04180361 -773.32348633 270.21264648 C-783.31897424 265.416004 -793.07294607 260.22842151 -802.76098633 254.83764648 C-804.44115845 253.90927979 -804.44115845 253.90927979 -806.15527344 252.9621582 C-807.19949463 252.37708496 -808.24371582 251.79201172 -809.31958008 251.18920898 C-810.25987061 250.66407715 -811.20016113 250.13894531 -812.16894531 249.59790039 C-814.32348633 248.21264648 -814.32348633 248.21264648 -815.32348633 246.21264648 C-804.21684181 229.32830305 -791.29041932 214.66725794 -775.32348633 202.21264648 C-774.77837402 201.78580566 -774.23326172 201.35896484 -773.67163086 200.91918945 C-763.46622454 192.99195677 -752.70150749 186.32568992 -741.32348633 180.21264648 C-740.59242676 179.81835449 -739.86136719 179.4240625 -739.1081543 179.01782227 C-711.44459347 164.37754916 -674.88541556 152.41414228 -643.32348633 153.21264648 C-642.94192383 151.9815918 -642.56036133 150.75053711 -642.16723633 149.48217773 C-640.14370702 143.42695539 -637.51006464 137.68546814 -634.82348633 131.90014648 C-634.29303711 130.75731201 -633.76258789 129.61447754 -633.21606445 128.43701172 C-614.23680216 88.02145124 -588.04259774 53.03187415 -556.71166992 21.42660522 C-555.30640955 20.00848537 -553.90473021 18.58681975 -552.50317383 17.16503906 C-546.42168365 11.07643923 -540.06375769 5.55681723 -533.32348633 0.21264648 C-532.06909617 -0.8125158 -530.81625334 -1.83957737 -529.56567383 -2.86938477 C-514.94941286 -14.77049811 -499.58872839 -25.27076013 -483.32348633 -34.78735352 C-482.62739258 -35.19663086 -481.93129883 -35.6059082 -481.21411133 -36.02758789 C-398.53890929 -84.28068983 -299.92689884 -100.35899221 0 0 Z M-319.32348633 -40.78735352 C-319.98864258 -40.19696289 -320.65379883 -39.60657227 -321.33911133 -38.99829102 C-339.64444288 -22.10678588 -349.84067728 3.44791409 -358.32348633 26.21264648 C-358.61175293 26.96884277 -358.90001953 27.72503906 -359.19702148 28.50415039 C-379.27330219 81.6382714 -388.20915754 146.6102048 -387.32348633 203.21264648 C-380.54023901 206.72835394 -373.67716853 209.98416163 -366.69848633 213.08764648 C-345.88667343 222.38063813 -325.23621476 232.01118874 -305.07128906 242.640625 C-295.77591726 247.53288616 -286.35966351 252.11556084 -276.8449707 256.56469727 C-274.28682977 257.76183061 -271.73096603 258.96321573 -269.17700195 260.16918945 C-239.21792393 274.30414935 -208.82836024 287.28330437 -177.94848633 299.27514648 C-176.89105225 299.68700195 -175.83361816 300.09885742 -174.74414062 300.52319336 C-173.79321533 300.88606445 -172.84229004 301.24893555 -171.86254883 301.62280273 C-170.64365967 302.08891968 -170.64365967 302.08891968 -169.40014648 302.56445312 C-167.20877487 303.36162422 -167.20877487 303.36162422 -164.32348633 303.21264648 C-163.98606476 233.70297308 -163.98606476 233.70297308 -165.32348633 164.21264648 C-165.35271179 163.34031372 -165.38193726 162.46798096 -165.41204834 161.56921387 C-167.03313864 114.19844447 -170.26192608 66.21144009 -182.32348633 20.21264648 C-182.56180176 19.30208496 -182.80011719 18.39152344 -183.0456543 17.45336914 C-188.92387736 -4.51432103 -198.02604371 -25.70660247 -213.32348633 -42.78735352 C-213.89711914 -43.44348633 -214.47075195 -44.09961914 -215.06176758 -44.77563477 C-227.03035319 -57.65828897 -244.50251929 -63.59897826 -261.63989258 -65.07250977 C-284.43514358 -65.71581133 -303.20750921 -56.20028466 -319.32348633 -40.78735352 Z " fill="#B47744" transform="translate(1417.323486328125,695.787353515625)"/>
<path d="M0 0 C3.83251106 0.59288174 6.69580743 1.71651869 10.078125 3.59765625 C11.06167969 4.14373535 12.04523437 4.68981445 13.05859375 5.25244141 C14.11175781 5.84976074 15.16492187 6.44708008 16.25 7.0625 C17.34957031 7.68302246 18.44914062 8.30354492 19.58203125 8.94287109 C37.7023822 19.2837369 55.13408799 30.72672074 72 43 C72.75442383 43.54333984 73.50884766 44.08667969 74.28613281 44.64648438 C85.20955145 52.51493459 95.77774832 60.70672901 106.07470703 69.37890625 C107.88700461 70.90485805 109.70607809 72.42227303 111.52734375 73.9375 C118.29923388 79.59280669 124.84887555 85.44772373 131.31079102 91.4543457 C132.57145127 92.60787079 133.84490934 93.74743847 135.12475586 94.87963867 C141.81357982 100.8081999 148.17254463 107.01861427 154.47827148 113.34790039 C156.19207233 115.0670867 157.91119082 116.78082583 159.63085938 118.49414062 C165.30206849 124.16192126 170.80705763 129.88509227 176 136 C177.45445517 137.60768373 178.91220895 139.21239715 180.375 140.8125 C184.21928245 145.07745308 187.89526905 149.4486085 191.50390625 153.9140625 C193.31198156 156.14939817 195.13112763 158.37188205 196.96484375 160.5859375 C209.69569154 176.00377674 221.20902268 192.13379139 232.3125 208.75 C232.776633 209.44302216 233.24076599 210.13604431 233.71896362 210.85006714 C240.10510648 220.40206514 246.18127906 230.09250614 252 240 C252.53343018 240.90427734 253.06686035 241.80855469 253.61645508 242.74023438 C297.40991873 317.42606622 325.28263006 400.53609282 320.48144531 728.14331055 C298.00405902 812.88395326 258.98592891 891.90468508 197 971 C196.28457031 971.88945313 195.56914063 972.77890625 194.83203125 973.6953125 C190.40179848 979.17019568 185.84029876 984.4811686 181.09765625 989.6875 C179.30492554 991.66384372 177.55204773 993.6645673 175.8125 995.6875 C166.80161427 1005.98858073 157.28536377 1015.81019207 147.625 1025.5 C146.79331299 1026.3362793 145.96162598 1027.17255859 145.10473633 1028.03417969 C140.79716701 1032.33097685 136.41816636 1036.47385081 131.8046875 1040.44042969 C129.20384717 1042.68801735 126.70281812 1045.03206032 124.1875 1047.375 C119.59440625 1051.61310701 114.88729778 1055.65600193 110.015625 1059.57421875 C107.80357784 1061.35359865 105.60793161 1063.14630553 103.421875 1064.95703125 C93.23202223 1073.3712521 82.73982285 1081.3019877 72 1089 C70.63149902 1089.98154053 70.63149902 1089.98154053 69.23535156 1090.98291016 C56.87122985 1099.81049517 44.31896309 1108.07542909 31.18847656 1115.71533203 C29.22233275 1116.8694874 27.27536804 1118.04776824 25.3359375 1119.24609375 C-50.63993861 1166.12892516 -138.43216854 1194.03022345 -455.640625 1191.0078125 C-515.38333173 1176.59421852 -573.37922874 1153.23454191 -626.13525391 1121.70800781 C-628.8468198 1120.0913285 -631.56796694 1118.49233549 -634.29296875 1116.8984375 C-645.88121696 1110.08582373 -657.00940146 1102.73588265 -668 1095 C-668.65226563 1094.54351074 -669.30453125 1094.08702148 -669.9765625 1093.61669922 C-682.00127826 1085.1924802 -693.58935471 1076.23805842 -705 1067 C-705.83660156 1066.32710937 -706.67320312 1065.65421875 -707.53515625 1064.9609375 C-732.26812521 1044.92686839 -754.59206539 1022.55017248 -777 1000 C-776.67 999.01 -776.34 998.02 -776 997 C-773.67813869 996.00426257 -771.48408394 995.21557473 -769.078125 994.484375 C-768.38112488 994.26428772 -767.68412476 994.04420044 -766.96600342 993.81744385 C-765.48831922 993.35438522 -764.00868974 992.89749627 -762.52734375 992.44628906 C-760.26747612 991.75534326 -758.01666645 991.03942259 -755.765625 990.3203125 C-754.32860024 989.87346877 -752.89111342 989.42810777 -751.453125 988.984375 C-750.44659882 988.66264313 -750.44659882 988.66264313 -749.41973877 988.33441162 C-745.5884917 987.18815056 -742.7762213 986.52752107 -739 988 C-736.53979492 990.02197266 -736.53979492 990.02197266 -733.98046875 992.6640625 C-733.51820389 993.13435883 -733.05593903 993.60465515 -732.57966614 994.08920288 C-731.1058216 995.59193477 -729.64623349 997.10760819 -728.1875 998.625 C-721.99257949 1005.00337391 -715.77662182 1011.23327678 -709 1017 C-707.22429779 1018.61967817 -705.45291693 1020.24411718 -703.6875 1021.875 C-698.28508543 1026.7957178 -692.69831141 1031.42792553 -687 1036 C-685.87979484 1036.91225289 -684.76002295 1037.82503803 -683.640625 1038.73828125 C-657.77235233 1059.7595672 -630.03248283 1078.62495483 -601 1095 C-600.15195801 1095.48307617 -599.30391602 1095.96615234 -598.43017578 1096.46386719 C-527.61921598 1136.65568064 -448.13740006 1161.77947737 -347 1172 C-345.85781006 1172.09498779 -344.71562012 1172.18997559 -343.53881836 1172.2878418 C-330.14702627 1173.2843208 -316.73460644 1173.19921062 -303.3125 1173.1875 C-302.03866455 1173.18689575 -300.7648291 1173.1862915 -299.45239258 1173.18566895 C-281.2092492 1173.16213755 -263.15341358 1172.93881764 -245 1171 C-243.76266113 1170.87641113 -242.52532227 1170.75282227 -241.25048828 1170.62548828 C-170.52717101 1163.44081438 -102.02260242 1143.80104407 -38 1113 C-36.48116211 1112.27345215 -36.48116211 1112.27345215 -34.93164062 1111.53222656 C-19.4901565 1104.10900828 -4.68270991 1095.81957677 10 1087 C11.61318714 1086.04150825 13.22646264 1085.0831652 14.83984375 1084.125 C41.9017639 1067.93853985 67.40439471 1048.96289424 91.32177734 1028.43554688 C93.08964519 1026.92331776 94.86635317 1025.42196278 96.64453125 1023.921875 C102.39268619 1019.05781708 107.99174797 1014.17714361 113.23828125 1008.765625 C114.94628737 1007.05383172 116.71549613 1005.49701712 118.5625 1003.9375 C127.34841334 996.3718524 135.73001167 987.93515969 143.20703125 979.07421875 C145.1822271 976.78918826 147.23180094 974.58651629 149.29394531 972.38012695 C155.13869464 966.12292388 160.64099499 959.68124317 166 953 C166.9827665 951.80726658 167.96724931 950.61594599 168.953125 949.42578125 C195.76275091 916.97115737 218.44808528 881.23796143 238 844 C238.48001465 843.09056641 238.9600293 842.18113281 239.45458984 841.24414062 C273.33912166 776.61818671 294.07724388 704.41594929 302 632 C302.0762561 631.30318115 302.15251221 630.6063623 302.2310791 629.88842773 C311.67992706 541.95567983 301.34454593 451.61123926 249 311 C248.505 309.93168945 248.01 308.86337891 247.5 307.76269531 C224.8373741 259.05870566 195.51921262 213.29496211 160.38720703 172.61376953 C158.89234882 170.87476693 157.41215919 169.12396528 155.93359375 167.37109375 C151.1159456 161.67538916 146.29576281 156.1037201 140.91943359 150.92041016 C139.10367331 149.10372606 137.43167256 147.23101271 135.765625 145.27734375 C132.0357925 140.98415371 128.0942986 136.94597093 124.0625 132.9375 C123.39798828 132.26912109 122.73347656 131.60074219 122.04882812 130.91210938 C118.12385925 126.99475441 114.08913649 123.26791718 109.89086914 119.64575195 C107.09056496 117.20845686 104.39500199 114.66421743 101.6875 112.125 C96.92390952 107.69856961 92.05931849 103.46475327 86.984375 99.39453125 C84.76972458 97.61759315 82.57507619 95.82504198 80.390625 94.01171875 C70.57019896 85.88766027 60.43633626 78.31332509 50 71 C49.2275293 70.45843262 48.45505859 69.91686523 47.65917969 69.35888672 C28.98482244 56.31936767 9.66448814 44.47956761 -10 33 C-9.43763872 28.29637913 -8.5103547 24.0926943 -6.93359375 19.62890625 C-6.53076172 18.47841797 -6.12792969 17.32792969 -5.71289062 16.14257812 C-5.29201172 14.96115234 -4.87113281 13.77972656 -4.4375 12.5625 C-4.01275391 11.35400391 -3.58800781 10.14550781 -3.15039062 8.90039062 C-2.1060029 5.93151317 -1.05572123 2.96486218 0 0 Z " fill="#B47744" transform="translate(1441,444)"/>
<path d="M0 0 C0.928125 0.61875 0.928125 0.61875 1.875 1.25 C2.555625 1.6625 3.23625 2.075 3.9375 2.5 C11.07133778 7.25589185 15.93812602 14.25200824 18.875 22.25 C21.33462866 21.16954297 23.79273375 20.08581139 26.25 19 C27.03133301 18.65590088 27.81266602 18.31180176 28.61767578 17.95727539 C33.68551746 15.71091241 38.71209923 13.39155233 43.71875 11.01171875 C44.88229004 10.46225586 46.04583008 9.91279297 47.24462891 9.34667969 C49.56398249 8.24887171 51.87887162 7.14157685 54.18896484 6.02441406 C55.25840332 5.52006836 56.3278418 5.01572266 57.4296875 4.49609375 C58.38343262 4.03904053 59.33717773 3.5819873 60.31982422 3.11108398 C63.07026597 2.18419615 64.2224801 2.16740789 66.875 3.25 C68.63486151 5.00986151 68.02656837 7.47304148 68.03515625 9.859375 C68.0097486 12.23967032 67.97683011 14.61989402 67.9375 17 C67.95232422 18.19367187 67.96714844 19.38734375 67.98242188 20.6171875 C67.80800505 29.04576257 67.80800505 29.04576257 65.5480957 31.96264648 C63.39791219 33.39774936 61.28175155 34.29871307 58.875 35.25 C57.16183235 36.03101215 55.44867286 36.81204226 53.73564148 37.59335327 C50.49131671 39.05065243 47.21284436 40.42673151 43.9375 41.8125 C42.60455154 42.38153837 41.2718673 42.95119609 39.93945312 43.52148438 C38.00629176 44.3486721 36.07292157 45.17532371 34.13833618 45.99917603 C29.36132691 48.03410881 24.61180355 50.12337799 19.875 52.25 C19.38 57.2 19.38 57.2 18.875 62.25 C20.54671265 62.32516846 20.54671265 62.32516846 22.25219727 62.40185547 C26.41049496 62.59104821 30.56820517 62.79122778 34.72583008 62.99462891 C36.52093708 63.08093368 38.3161875 63.16430949 40.11157227 63.24462891 C42.70112212 63.36099703 45.28996309 63.48809771 47.87890625 63.6171875 C49.07151817 63.66732498 49.07151817 63.66732498 50.28822327 63.71847534 C55.11026685 63.97148548 59.28176146 64.74831294 63.875 66.25 C63.9293251 69.27107902 63.96882927 72.29116528 64 75.3125 C64.01675781 76.16005859 64.03351563 77.00761719 64.05078125 77.88085938 C64.09096135 83.08418201 63.57245815 87.32469821 61.875 92.25 C50.29202034 92.4344462 38.80130546 91.85283005 27.2421875 91.19140625 C25.27313847 91.08140822 23.30407276 90.9717083 21.33499146 90.86228943 C17.23181559 90.63348179 13.12879484 90.40212266 9.02587891 90.16870117 C3.79707306 89.87128585 -1.43198979 89.57872564 -6.66116524 89.28788853 C-10.71926599 89.06191341 -14.77726487 88.83415214 -18.83523178 88.60578728 C-20.76230746 88.49739859 -22.68940312 88.38936461 -24.61651993 88.28170967 C-29.73256461 87.99509632 -34.84725811 87.69327511 -39.96140289 87.37462234 C-41.96756431 87.25906823 -43.97548692 87.1752809 -45.9833374 87.09420776 C-47.0689093 87.03854645 -48.1544812 86.98288513 -49.27294922 86.92553711 C-50.17971405 86.88988144 -51.08647888 86.85422577 -52.02072144 86.81748962 C-54.125 86.25 -54.125 86.25 -55.42730713 84.52734375 C-56.2340875 81.89392681 -56.2807557 79.88783921 -56.14013672 77.13696289 C-56.09283417 76.11812515 -56.04553162 75.09928741 -55.99679565 74.04957581 C-55.93339996 72.95169235 -55.87000427 71.8538089 -55.8046875 70.72265625 C-55.74475616 69.58275742 -55.68482483 68.44285858 -55.62307739 67.26841736 C-55.49233091 64.85140244 -55.35577145 62.43469606 -55.21386719 60.01831055 C-55.00266505 56.358679 -54.82048989 52.69839766 -54.640625 49.03710938 C-53.69614819 31.44954178 -52.65349654 17.18953097 -39.375 4.5 C-29.12928342 -3.88460327 -11.99288292 -6.74599664 0 0 Z M-25.125 28.25 C-27.80909582 32.70843801 -28.56737157 36.26801368 -28.8125 41.4375 C-28.87824219 42.64792969 -28.94398438 43.85835937 -29.01171875 45.10546875 C-29.14965143 50.15190237 -29.125 55.20168169 -29.125 60.25 C-20.875 60.58 -12.625 60.91 -4.125 61.25 C-3.25238883 55.1417218 -2.80716568 49.39008708 -2.6875 43.25 C-2.61885742 41.81140625 -2.61885742 41.81140625 -2.54882812 40.34375 C-2.4689137 35.28481966 -2.70374112 32.0862412 -6.02734375 28.125 C-8.99681198 25.10449756 -10.51447441 24.30087713 -14.875 23.9375 C-19.30179683 24.00980703 -21.76503942 25.28073251 -25.125 28.25 Z " fill="#B47744" transform="translate(421.125,925.75)"/>
<path d="M0 0 C2.20023308 2.81908491 3.68602389 6.07193589 5.3125 9.25 C6.01342773 10.53970703 6.01342773 10.53970703 6.72851562 11.85546875 C7.16486328 12.69207031 7.60121094 13.52867188 8.05078125 14.390625 C8.44950439 15.15407227 8.84822754 15.91751953 9.2590332 16.70410156 C10.19035054 19.58980443 10.01823895 21.15535386 9 24 C7.4597168 25.3269043 7.4597168 25.3269043 5.44921875 26.32421875 C4.69680908 26.70852051 3.94439941 27.09282227 3.16918945 27.48876953 C1.94075317 28.08214111 1.94075317 28.08214111 0.6875 28.6875 C-0.14885986 29.1088623 -0.98521973 29.53022461 -1.84692383 29.96435547 C-3.62870424 30.85929856 -5.41458863 31.74610894 -7.20410156 32.62548828 C-10.04845596 34.02382178 -12.88073151 35.44436375 -15.7109375 36.87109375 C-20.46538402 39.26483276 -25.22910837 41.63922466 -30 44 C-23.59349495 58.01018528 -16.50637675 71.54892457 -9 85 C-7.87505127 84.41919678 -6.75010254 83.83839355 -5.59106445 83.23999023 C-1.41432484 81.08825604 2.77166378 78.95508742 6.96069336 76.82739258 C8.77219015 75.9040466 10.58114177 74.97568946 12.38745117 74.04223633 C14.9848335 72.70107628 17.59084618 71.37822464 20.19921875 70.05859375 C21.00461594 69.63783066 21.81001312 69.21706757 22.63981628 68.78355408 C25.89459805 67.15503166 28.20647495 66.00235388 31.88061523 65.99145508 C34.58288565 67.27737595 35.3241861 68.44122589 36.7109375 71.078125 C37.37029297 72.32529297 37.37029297 72.32529297 38.04296875 73.59765625 C38.70232422 74.91056641 38.70232422 74.91056641 39.375 76.25 C39.83777344 77.10980469 40.30054688 77.96960937 40.77734375 78.85546875 C43.97005358 85.04074839 43.97005358 85.04074839 44.07330322 88.34806824 C42.32268641 92.67351535 38.61561258 93.77663461 34.55224609 95.72680664 C33.66601562 96.16977585 32.77978516 96.61274506 31.86669922 97.06913757 C28.92708893 98.53324721 25.97558272 99.97151166 23.0234375 101.41015625 C20.97816456 102.42312746 18.93371039 103.43775338 16.89004517 104.45396423 C11.49828283 107.12980543 6.09625184 109.78422792 0.69165039 112.434021 C-5.85492004 115.64839431 -12.38945162 118.8871447 -18.92558861 122.12266445 C-24.01589835 124.6419487 -29.10795523 127.15746436 -34.20571899 129.66163635 C-35.14712738 130.12493347 -36.08853577 130.58823059 -37.05847168 131.06556702 C-38.80533763 131.9250614 -40.55302339 132.78289264 -42.30172729 133.63864136 C-45.89469531 135.40841331 -49.42504447 137.21482092 -52.88119507 139.24046326 C-56.42066017 141.23732392 -58.03760876 142.03366728 -62 141 C-64.1725105 138.60051079 -65.53694511 135.87055073 -67 133 C-67.46921875 132.15953125 -67.9384375 131.3190625 -68.421875 130.453125 C-71.0074053 125.65972613 -72.28131925 122.54600801 -72 117 C-59.33333333 110.33333333 -46.66666667 103.66666667 -34 97 C-40.6 83.8 -47.2 70.6 -54 57 C-58.75680387 58.58560129 -62.83594962 60.36596488 -67.19140625 62.73046875 C-68.56154832 63.45824856 -69.93200041 64.18544497 -71.30273438 64.91210938 C-73.44119864 66.05165494 -75.57705227 67.19538145 -77.70776367 68.34936523 C-79.77908748 69.46838906 -81.8592093 70.56934203 -83.94140625 71.66796875 C-84.57486465 72.0168364 -85.20832306 72.36570404 -85.86097717 72.72514343 C-88.61371644 74.1633681 -90.64182382 75.0047639 -93.77172852 74.96313477 C-96.60071714 73.74034961 -97.28582616 72.63171529 -98.7109375 69.921875 C-99.15050781 69.09042969 -99.59007812 68.25898437 -100.04296875 67.40234375 C-100.48253906 66.52707031 -100.92210937 65.65179687 -101.375 64.75 C-102.06916016 63.46029297 -102.06916016 63.46029297 -102.77734375 62.14453125 C-105.97314851 55.95325576 -105.97314851 55.95325576 -106.06620789 52.64955139 C-104.33829124 48.35563835 -100.69229625 47.25357545 -96.66577148 45.3112793 C-95.81235641 44.88174045 -94.95894133 44.4522016 -94.07966518 44.00964642 C-92.28391634 43.10726349 -90.48442616 42.21229209 -88.68149948 41.32433701 C-86.15996751 40.07900464 -83.65269848 38.80980643 -81.14993286 37.5272522 C-70.71556131 32.18082275 -60.22976491 26.93470563 -49.75219727 21.67358398 C-45.92892609 19.75293765 -42.10920646 17.82547148 -38.29223633 15.89233398 C-33.6396241 13.53605003 -28.98131537 11.19142742 -24.31860161 8.85519981 C-22.55306627 7.96815128 -20.78958858 7.07699489 -19.02824593 6.18165016 C-16.58426704 4.94033796 -14.13325843 3.71416302 -11.67993164 2.49145508 C-10.59613724 1.93455742 -10.59613724 1.93455742 -9.490448 1.3664093 C-5.88454615 -0.4103796 -3.8230415 -1.42426769 0 0 Z " fill="#B47744" transform="translate(526,1228)"/>
<path d="M0 0 C3.25789027 6.93164777 5.85136154 14.01124844 8.328125 21.25390625 C8.72199402 22.39536606 9.11586304 23.53682587 9.52166748 24.71287537 C10.76818786 28.32814062 12.00917592 31.94527623 13.25 35.5625 C14.09859238 38.02681875 14.94754703 40.49101279 15.796875 42.95507812 C17.86877591 48.96861583 19.93614848 54.98369531 22 61 C30.84670812 60.52778665 39.65892642 59.8845558 48.4765625 59.02734375 C49.38372009 58.93949615 50.29087769 58.85164856 51.2255249 58.76113892 C54.96787901 58.39675505 58.70988835 58.02927994 62.45117188 57.65405273 C85.53901123 55.34887377 85.53901123 55.34887377 95 56 C96 57 96 57 96.4296875 59.453125 C95.78806854 64.74939787 93.03956054 68.36815498 90.125 72.75 C89.56941406 73.61238281 89.01382813 74.47476563 88.44140625 75.36328125 C83.00271241 83.73755923 83.00271241 83.73755923 79.72305298 84.59594727 C76.95436384 85.0067716 74.22354424 85.2727656 71.43115234 85.46484375 C69.7945314 85.58001343 69.7945314 85.58001343 68.12484741 85.69750977 C66.95700714 85.77670654 65.78916687 85.85590332 64.5859375 85.9375 C62.10937363 86.11195977 59.63281118 86.28643953 57.15625 86.4609375 C53.25430766 86.73190572 49.35227783 87.00156607 45.45019531 87.27050781 C41.68270953 87.53128269 37.91557194 87.79670541 34.1484375 88.0625 C32.97654877 88.14169678 31.80466003 88.22089355 30.59725952 88.30249023 C28.97009506 88.41765991 28.97009506 88.41765991 27.31005859 88.53515625 C25.87706924 88.63389038 25.87706924 88.63389038 24.41513062 88.73461914 C21.86027115 88.92951202 21.86027115 88.92951202 19 90 C19.71430176 90.43755615 20.42860352 90.8751123 21.16455078 91.32592773 C27.47032136 95.19096788 33.76922734 99.06669949 40.05961609 102.95671082 C43.29660236 104.95638276 46.54504974 106.93465275 49.80859375 108.890625 C51.06019223 109.65576537 52.31152811 110.42133561 53.5625 111.1875 C54.61566406 111.82042969 55.66882813 112.45335937 56.75390625 113.10546875 C59 115 59 115 60.1015625 117.26953125 C59.95035767 121.33461486 57.95524053 124.1756253 55.8125 127.5 C55.41224609 128.15097656 55.01199219 128.80195312 54.59960938 129.47265625 C53.43503932 131.34125326 52.22965378 133.17373073 51 135 C50.34386719 135.9796875 49.68773437 136.959375 49.01171875 137.96875 C47 140 47 140 44.67529297 140.30566406 C41.45531563 139.9377674 39.85428644 138.96057391 37.18359375 137.140625 C36.26465332 136.52541992 35.34571289 135.91021484 34.39892578 135.27636719 C33.42165527 134.60766602 32.44438477 133.93896484 31.4375 133.25 C29.36270345 131.86155048 27.28584293 130.47618075 25.20703125 129.09375 C24.16498535 128.40023437 23.12293945 127.70671875 22.04931641 126.9921875 C17.64850747 124.11703931 13.15213045 121.4202578 8.625 118.75 C1.05825509 114.27008219 -6.35066166 109.59912418 -13.7109375 104.7890625 C-18.33845382 101.76775602 -23.01058896 98.81906511 -27.6875 95.875 C-39.32640479 88.53794427 -39.32640479 88.53794427 -45.0625 84.875 C-46.71958984 83.81925781 -46.71958984 83.81925781 -48.41015625 82.7421875 C-51 81 -51 81 -53 79 C-52.88451646 73.15475597 -49.8739716 68.88460011 -46.8125 64.125 C-46.34263672 63.34125 -45.87277344 62.5575 -45.38867188 61.75 C-44.68000977 60.64011719 -44.68000977 60.64011719 -43.95703125 59.5078125 C-43.32244995 58.49678467 -43.32244995 58.49678467 -42.67504883 57.46533203 C-41 56 -41 56 -38.18969727 55.57299805 C-34.39219682 56.08136607 -32.23799352 57.27595626 -29.0078125 59.32421875 C-27.33138672 60.37319336 -27.33138672 60.37319336 -25.62109375 61.44335938 C-24.45551556 62.19107337 -23.29015227 62.93912247 -22.125 63.6875 C-20.96822565 64.41724992 -19.810679 65.14577712 -18.65234375 65.87304688 C-16.43051266 67.2707577 -14.21459683 68.67659278 -12.00097656 70.08740234 C-8.34845897 72.41524345 -4.6764124 74.71014609 -1 77 C-1.33733154 75.98800537 -1.67466309 74.97601074 -2.0222168 73.93334961 C-5.15856934 64.52429199 -5.15856934 64.52429199 -8.29492188 55.11523438 C-8.55822296 54.32589508 -8.82152405 53.53655579 -9.09280396 52.72329712 C-9.62255248 51.13291121 -10.15093178 49.54206857 -10.677948 47.95077515 C-11.92394084 44.19379528 -13.1878293 40.44616088 -14.51025391 36.71533203 C-14.86142021 35.70920616 -14.86142021 35.70920616 -15.21968079 34.68275452 C-15.84845801 32.88559215 -16.48789921 31.09217064 -17.12817383 29.29907227 C-18.3135288 24.81357754 -18.78138122 20.94233504 -17.02197266 16.56884766 C-16.5738623 15.85776855 -16.12575195 15.14668945 -15.6640625 14.4140625 C-14.93316406 13.23650391 -14.93316406 13.23650391 -14.1875 12.03515625 C-13.671875 11.23980469 -13.15625 10.44445312 -12.625 9.625 C-11.86316406 8.39716797 -11.86316406 8.39716797 -11.0859375 7.14453125 C-6.47618016 -0.17042579 -6.47618016 -0.17042579 0 0 Z " fill="#B47744" transform="translate(507,590)"/>
<path d="M0 0 C1.18252098 0.41466522 1.18252098 0.41466522 2.38893127 0.83770752 C3.27112335 1.14075806 4.15331543 1.44380859 5.0622406 1.75604248 C5.96096893 2.09397827 6.85969727 2.43191406 7.78565979 2.78009033 C8.61244232 3.08934448 9.43922485 3.39859863 10.2910614 3.71722412 C12.91863794 4.73322423 15.52658568 5.78989986 18.13331604 6.85821533 C19.11977615 7.25806137 20.10623627 7.65790741 21.12258911 8.06987 C24.36619947 9.38567256 27.60720494 10.707762 30.84815979 12.03009033 C34.29595309 13.43180929 37.74428627 14.83219452 41.19264221 16.23252869 C43.60676618 17.21302536 46.02066211 18.19408368 48.43434143 19.17567444 C56.88473296 22.61114218 65.34631988 26.01796696 73.81432152 29.40977859 C77.76035009 30.99076174 81.70529704 32.57444289 85.65037632 34.15779305 C88.8457815 35.43992967 92.04189878 36.72023382 95.23954773 37.99676514 C98.81181631 39.42295903 102.38085943 40.85711279 105.94972229 42.29180908 C107.02122025 42.71796005 108.0927182 43.14411102 109.19668579 43.58317566 C110.17173569 43.97646561 111.14678558 44.36975555 112.15138245 44.77496338 C113.00269745 45.11577438 113.85401245 45.45658539 114.73112488 45.807724 C116.78565979 46.78009033 116.78565979 46.78009033 118.78565979 48.78009033 C118.28241896 53.76727063 114.52188148 56.59601581 111.16065979 59.96759033 C110.55608948 60.60889893 109.95151917 61.25020752 109.32862854 61.91094971 C106.3386386 64.92962825 104.36574204 66.60229224 100.24269104 67.86602783 C96.27589262 67.76741815 93.70130445 66.85073164 90.09815979 65.21759033 C85.9801173 63.12620377 85.9801173 63.12620377 81.62550354 63.39727783 C79.56027149 64.94949046 77.81674104 66.59451109 76.03565979 68.46759033 C73.37550125 71.20164217 70.68316081 73.79896249 67.78565979 76.28009033 C64.21339356 79.34704581 60.91926482 82.62563946 57.61769104 85.97930908 C55.46878952 88.09155557 53.19544545 89.97275109 50.78565979 91.78009033 C50.99062073 92.46973877 51.19558167 93.15938721 51.40675354 93.86993408 C51.6761676 94.80966064 51.94558167 95.74938721 52.22315979 96.71759033 C52.48999573 97.63411377 52.75683167 98.55063721 53.03175354 99.49493408 C53.2805426 100.57903564 53.52933167 101.66313721 53.78565979 102.78009033 C53.97418518 103.47505615 54.16271057 104.17002197 54.35694885 104.88604736 C55.08719514 108.40498781 55.41331571 110.72042267 53.53639221 113.88922119 C51.6875122 116.00864397 49.74440172 117.89169921 47.66065979 119.78009033 C46.98261292 120.44653564 46.30456604 121.11298096 45.60597229 121.79962158 C42.02332387 125.20869207 39.80152915 127.09586209 34.78565979 127.78009033 C31.42450214 122.93437279 29.8655066 117.54054869 28.04737854 111.99102783 C27.68982986 110.91545624 27.33228119 109.83988464 26.96389771 108.73171997 C25.79437894 105.20811307 24.63364062 101.6816831 23.47315979 98.15509033 C22.66530503 95.71452374 21.85703313 93.27409519 21.0483551 90.83380127 C15.4367781 73.87872932 9.88021972 56.9053097 4.37818909 39.91436768 C4.11471176 39.10120087 3.85123444 38.28803406 3.57977295 37.45022583 C3.0684397 35.8708747 2.55800484 34.29123237 2.04855347 32.71127319 C0.75610521 28.71551904 -0.56674795 24.7329882 -1.93504333 20.76251221 C-2.21479004 19.94490417 -2.49453674 19.12729614 -2.78276062 18.28491211 C-3.31508068 16.73402758 -3.85354989 15.1852344 -4.39933777 13.63903809 C-6.89194268 6.35712655 -6.89194268 6.35712655 -6.21434021 2.78009033 C-4.07669111 0.68637311 -3.04561295 -0.30246469 0 0 Z M31.78565979 40.78009033 C34.42565979 49.03009033 37.06565979 57.28009033 39.78565979 65.78009033 C43.81001916 65.78009033 44.73666837 64.34800644 47.66065979 61.65509033 C48.50370667 60.88938721 49.34675354 60.12368408 50.21534729 59.33477783 C52.95609086 56.61069532 55.35735021 53.78283874 57.78565979 50.78009033 C53.82972401 49.10769112 49.87053139 47.44314651 45.91065979 45.78009033 C44.7827301 45.30313721 43.65480042 44.82618408 42.49269104 44.33477783 C41.41632385 43.88360596 40.33995667 43.43243408 39.23097229 42.96759033 C38.23597717 42.54864502 37.24098206 42.12969971 36.21583557 41.69805908 C33.90679367 40.66230111 33.90679367 40.66230111 31.78565979 40.78009033 Z " fill="#B47744" transform="translate(592.2143402099609,491.21990966796875)"/>
<path d="M0 0 C1.51722798 5.76994759 -0.18909928 9.71936108 -2.125 15.1875 C-2.56972656 16.55938477 -2.56972656 16.55938477 -3.0234375 17.95898438 C-5.30765851 24.51644086 -5.30765851 24.51644086 -8.25390625 26.57421875 C-11.77148911 27.11961922 -15.25997598 27.46182186 -18.8125 27.625 C-19.50537109 27.66367187 -20.19824219 27.70234375 -20.91210938 27.7421875 C-22.60767015 27.83573568 -24.30379712 27.91892364 -26 28 C-26.11263184 28.99040283 -26.22526367 29.98080566 -26.34130859 31.0012207 C-26.94039112 35.17301475 -28.17407807 39.00411833 -29.5390625 42.98046875 C-30.04190227 44.48885377 -30.54449938 45.9973197 -31.046875 47.50585938 C-31.83768849 49.85734625 -32.63184204 52.20761766 -33.43066406 54.55639648 C-34.20499432 56.84067073 -34.96646977 59.12892473 -35.7265625 61.41796875 C-36.0905162 62.46962471 -36.0905162 62.46962471 -36.46182251 63.54252625 C-38.07863633 68.28802637 -38.07863633 68.28802637 -37 73 C-35.26438866 74.88222901 -35.26438866 74.88222901 -33.125 76.5625 C-31.74667069 77.70432631 -30.37149421 78.84997276 -29 80 C-28.12988281 80.71736328 -28.12988281 80.71736328 -27.2421875 81.44921875 C-25.5617421 83.54713328 -25.71164038 84.60069604 -26 87.25 C-26.92823822 94.44117884 -29.54762559 101.21298595 -32 108 C-34.2265625 108.72265625 -34.2265625 108.72265625 -37 109 C-39.1484375 107.62109375 -39.1484375 107.62109375 -41.375 105.4375 C-42.67050781 104.19806641 -42.67050781 104.19806641 -43.9921875 102.93359375 C-44.4675293 102.46808105 -44.94287109 102.00256836 -45.43261719 101.52294922 C-48.40785627 98.63205492 -51.46278012 95.82543577 -54.5 93 C-55.79953064 91.78390917 -57.09901069 90.56776427 -58.3984375 89.3515625 C-62.05306595 85.94070291 -65.76188379 82.5939188 -69.48828125 79.26171875 C-74.1417705 75.07140728 -78.72687642 70.80653832 -83.32226562 66.55273438 C-86.06717492 64.0123352 -88.81461219 61.47467663 -91.5625 58.9375 C-92.10108643 58.44016357 -92.63967285 57.94282715 -93.19458008 57.43041992 C-97.27815113 53.66158444 -101.37235484 49.90449798 -105.47192383 46.15307617 C-108.10789728 43.73955507 -110.73769279 41.31966925 -113.359375 38.890625 C-114.20205933 38.11066162 -114.20205933 38.11066162 -115.06176758 37.31494141 C-116.17535994 36.2826743 -117.28721809 35.24853275 -118.3972168 34.21240234 C-121.44342063 31.38155847 -124.56463649 28.72558207 -127.8125 26.125 C-130.52366592 23.79054345 -130.93040348 23.36886155 -131.625 19.6875 C-131 17 -131 17 -129 15 C-126.83340076 14.55885717 -124.64388514 14.22868275 -122.45043945 13.95019531 C-121.77375717 13.86190051 -121.09707489 13.77360571 -120.39988708 13.68263531 C-118.13864783 13.38967218 -115.8760582 13.10894408 -113.61328125 12.828125 C-112.01619514 12.62359799 -110.41920674 12.4183067 -108.8223114 12.21229553 C-104.53897295 11.66187927 -100.25437541 11.12193842 -95.96942139 10.58426285 C-91.55770698 10.02923242 -87.1470655 9.46580898 -82.73632812 8.90307617 C-77.45798332 8.23024693 -72.17950345 7.55854607 -66.90042114 6.89152527 C-56.79801018 5.61480905 -46.69981665 4.31186929 -36.60546875 2.97265625 C-33.39047829 2.54917205 -30.175405 2.12632338 -26.96029663 1.70373535 C-24.99693381 1.44425563 -23.03389415 1.18231817 -21.07119751 0.91784668 C-18.40253877 0.55896077 -15.73277653 0.20989002 -13.0625 -0.13671875 C-11.92575081 -0.29369484 -11.92575081 -0.29369484 -10.76603699 -0.45384216 C-6.93576604 -0.94055309 -3.73678909 -1.0370321 0 0 Z M-60.54296875 31.65625 C-61.61611328 31.79160156 -62.68925781 31.92695312 -63.79492188 32.06640625 C-65.47424805 32.28103516 -65.47424805 32.28103516 -67.1875 32.5 C-68.31865234 32.64308594 -69.44980469 32.78617188 -70.61523438 32.93359375 C-73.41037034 33.28740843 -76.20527655 33.64294393 -79 34 C-77.16227938 38.02711706 -74.50860511 40.58315104 -71.25 43.5 C-70.73695313 43.97308594 -70.22390625 44.44617188 -69.6953125 44.93359375 C-66.32122544 47.9940094 -62.84579651 50.55895551 -59 53 C-54.09167603 42.33128388 -54.09167603 42.33128388 -52 31 C-54.92436146 31 -57.64350827 31.28806454 -60.54296875 31.65625 Z " fill="#B47744" transform="translate(529,775)"/>
<path d="M0 0 C3.8125 -0.4375 3.8125 -0.4375 7 0 C9.39810552 6.70905841 11.15442936 13.46289215 12.72729492 20.40722656 C13.10834129 22.06501129 13.10834129 22.06501129 13.49708557 23.75628662 C14.32943919 27.38337272 15.15521696 31.011917 15.98046875 34.640625 C16.55887093 37.17174596 17.13751328 39.70281204 17.71638489 42.23382568 C18.9254807 47.52532578 20.13131465 52.81755411 21.3347168 58.11035156 C22.72441789 64.22220459 24.12135547 70.33237108 25.52190703 76.441746 C26.87283764 82.33582819 28.21769754 88.23127667 29.56008339 94.12731171 C30.13058656 96.62995629 30.70275128 99.1322227 31.27660179 101.63410187 C32.07657642 105.12502299 32.86963084 108.61744592 33.66088867 112.11035156 C33.89929474 113.14421997 34.13770081 114.17808838 34.3833313 115.24328613 C34.70498009 116.6729068 34.70498009 116.6729068 35.03312683 118.13140869 C35.31488156 119.367974 35.31488156 119.367974 35.6023283 120.62952042 C36.02408008 123.14353888 36.13850864 125.45559998 36 128 C35 129 35 129 31.984375 129.17578125 C27.55022022 128.98015677 23.55100287 128.21959057 19.25 127.1875 C18.49589844 127.02185547 17.74179688 126.85621094 16.96484375 126.68554688 C13.09504743 125.7748044 10.53715216 125.09342617 8 122 C7.05078125 119.00390625 7.05078125 119.00390625 6.3125 115.5625 C6.06113281 114.42941406 5.80976562 113.29632813 5.55078125 112.12890625 C5 109 5 109 5 105 C3.03160156 104.86658203 3.03160156 104.86658203 1.0234375 104.73046875 C-3.68215241 104.26190014 -8.23407179 103.36266139 -12.8359375 102.30078125 C-13.52770081 102.14173309 -14.21946411 101.98268494 -14.93218994 101.81881714 C-17.81576115 101.15075132 -20.69729224 100.47497243 -23.57568359 99.78491211 C-25.70147029 99.27803757 -27.8306464 98.78832114 -29.9609375 98.30078125 C-31.21696777 98.00341064 -32.47299805 97.70604004 -33.76708984 97.3996582 C-37.1271806 96.9842777 -38.32058211 97.01781536 -41 99 C-43.04862815 101.77515194 -44.86727678 104.64935226 -46.70703125 107.56640625 C-49 110 -49 110 -52.1796875 110.95703125 C-56.80766573 111.00908417 -60.83810545 110.22627722 -65.3125 109.125 C-66.12267578 108.93808594 -66.93285156 108.75117188 -67.76757812 108.55859375 C-73.64104199 107.179479 -73.64104199 107.179479 -76 106 C-75.75873565 99.19991969 -72.94612434 95.69019708 -68.6875 90.5625 C-67.39586941 88.95674669 -66.10552612 87.34995715 -64.81640625 85.7421875 C-64.16945801 84.94264648 -63.52250977 84.14310547 -62.85595703 83.31933594 C-60.19971022 79.99990096 -57.65691225 76.6021494 -55.125 73.1875 C-50.5036686 66.98569977 -45.82354307 60.83097377 -41.125 54.6875 C-35.38632693 47.17983398 -29.74821239 39.60664766 -24.16870117 31.98022461 C-19.46545595 25.57602066 -14.61845744 19.29185055 -9.70458984 13.0480957 C-9.16141113 12.35675537 -8.61823242 11.66541504 -8.05859375 10.953125 C-7.27947632 9.96517944 -7.27947632 9.96517944 -6.48461914 8.95727539 C-5.01738558 7.0229206 -3.6798823 5.03286283 -2.3359375 3.01171875 C-1.56507812 2.01785156 -0.79421875 1.02398437 0 0 Z M-8 53 C-9.80590589 55.00243129 -9.80590589 55.00243129 -11.6953125 57.59375 C-12.76845703 59.01494141 -12.76845703 59.01494141 -13.86328125 60.46484375 C-14.60964844 61.46644531 -15.35601563 62.46804688 -16.125 63.5 C-16.87910156 64.50160156 -17.63320312 65.50320313 -18.41015625 66.53515625 C-20.27913672 69.01924421 -22.14208613 71.50763032 -24 74 C-21.17032108 75.53884929 -18.60578083 76.43126064 -15.453125 77.0703125 C-14.18662109 77.33134766 -14.18662109 77.33134766 -12.89453125 77.59765625 C-11.58548828 77.85869141 -11.58548828 77.85869141 -10.25 78.125 C-9.36183594 78.30675781 -8.47367188 78.48851562 -7.55859375 78.67578125 C-5.37336729 79.12222537 -3.18721983 79.56344566 -1 80 C-1.60171362 73.67250629 -2.62151909 67.62404348 -4.0625 61.4375 C-4.24876953 60.61958984 -4.43503906 59.80167969 -4.62695312 58.95898438 C-5.08020687 56.97164104 -5.53946212 54.98566799 -6 53 C-6.66 53 -7.32 53 -8 53 Z " fill="#B47744" transform="translate(1216,317)"/>
<path d="M0 0 C0.99 0.433125 0.99 0.433125 2 0.875 C2.48066535 2.77045392 2.95946743 4.66638039 3.4375 6.5625 C3.70433594 7.61824219 3.97117187 8.67398437 4.24609375 9.76171875 C4.89926635 12.45901702 5.47402973 15.15074375 6 17.875 C6.18304688 18.56980469 6.36609375 19.26460937 6.5546875 19.98046875 C6.97698427 22.72539775 6.95090041 24.22991894 6 26.875 C1.99887581 30.74511876 -2.38392697 33.78535749 -7 36.875 C-7.33 37.205 -7.66 37.535 -8 37.875 C-7.52451635 40.81271376 -6.98216283 43.70404553 -6.3828125 46.6171875 C-6.11789505 47.93615524 -6.11789505 47.93615524 -5.84762573 49.2817688 C-5.4719067 51.14688562 -5.09341435 53.01144553 -4.71240234 54.87548828 C-4.12916276 57.72962914 -3.55405505 60.58531143 -2.98046875 63.44140625 C-2.61506079 65.25009653 -2.24919049 67.05869347 -1.8828125 68.8671875 C-1.7098465 69.72351776 -1.53688049 70.57984802 -1.3586731 71.46212769 C-1.19535492 72.25950348 -1.03203674 73.05687927 -0.86376953 73.87841797 C-0.7208548 74.57933563 -0.57794006 75.2802533 -0.43069458 76.00241089 C0.01686505 78.08482297 0.01686505 78.08482297 1 80.875 C4.35445765 81.86182591 7.67105934 82.57657841 11.09765625 83.24804688 C16.5968261 84.44504286 16.5968261 84.44504286 18.6574707 86.64257812 C21.0299375 90.58762929 21.49282047 94.95799674 22.3125 99.4375 C22.50650391 100.39591797 22.70050781 101.35433594 22.90039062 102.34179688 C23.07376953 103.26154297 23.24714844 104.18128906 23.42578125 105.12890625 C23.58473877 105.96752197 23.74369629 106.8061377 23.9074707 107.67016602 C24 109.875 24 109.875 22 112.875 C15.80845807 112.22509727 9.91611622 111.01509393 3.87475586 109.5300293 C2.89306427 109.29246918 1.91137268 109.05490906 0.89993286 108.81015015 C-2.32949313 108.02747924 -5.55732937 107.23845631 -8.78515625 106.44921875 C-11.04699062 105.89938383 -13.30890915 105.34989501 -15.57090759 104.80073547 C-20.30990165 103.64925543 -25.04817041 102.4948526 -29.78588867 101.33813477 C-35.82088996 99.86474024 -41.85716029 98.39663142 -47.89392948 96.93049908 C-52.56750893 95.79516324 -57.24063275 94.65796174 -61.91360283 93.52012062 C-64.13678254 92.97882343 -66.36004353 92.43785995 -68.58339119 91.89725304 C-73.63344225 90.66851409 -78.68115698 89.43206311 -83.72366333 88.17269897 C-87.05135873 87.34311597 -90.38264872 86.56268383 -93.73410034 85.83535767 C-94.43986175 85.67283666 -95.14562315 85.51031565 -95.87277126 85.34286976 C-97.69725478 84.92280648 -99.52702187 84.52586783 -101.35716248 84.13117981 C-104 82.875 -104 82.875 -105.38392639 79.74931335 C-105.58723068 78.80078995 -105.79053497 77.85226654 -106 76.875 C-101.84463063 72.42933536 -97.23260691 68.93847263 -92.3125 65.375 C-91.4774292 64.76479004 -90.6423584 64.15458008 -89.78198242 63.52587891 C-83.39564009 58.86607854 -76.97931834 54.24754195 -70.56176758 49.63085938 C-65.66508422 46.10082946 -60.81830265 42.51113908 -56 38.875 C-49.70793259 34.12668219 -43.3433662 29.48869638 -36.94384766 24.88647461 C-31.22795935 20.77214252 -25.54355602 16.61678844 -19.875 12.4375 C-19.10567139 11.87047363 -18.33634277 11.30344727 -17.54370117 10.71923828 C-16.80482666 10.17380371 -16.06595215 9.62836914 -15.3046875 9.06640625 C-14.58764648 8.54191895 -13.87060547 8.01743164 -13.13183594 7.47705078 C-11.67708829 6.38382425 -10.24850727 5.25511213 -8.84472656 4.09716797 C-3.61426386 -0.15059433 -3.61426386 -0.15059433 0 0 Z M-38.1875 57.5625 C-39.36112609 58.48416025 -40.53559861 59.40474373 -41.7109375 60.32421875 C-42.27651367 60.76685059 -42.84208984 61.20948242 -43.42480469 61.66552734 C-45.34193686 63.1375473 -47.31501517 64.51457309 -49.3125 65.875 C-50.199375 66.535 -51.08625 67.195 -52 67.875 C-52 68.535 -52 69.195 -52 69.875 C-48.4182952 70.71543997 -44.83439357 71.54610899 -41.25 72.375 C-40.23421875 72.61347656 -39.2184375 72.85195312 -38.171875 73.09765625 C-36.70234375 73.43603516 -36.70234375 73.43603516 -35.203125 73.78125 C-34.30239258 73.99072266 -33.40166016 74.20019531 -32.47363281 74.41601562 C-29.76383076 74.99662449 -29.76383076 74.99662449 -26 74.875 C-26.48701051 67.28435336 -27.99763587 60.20440833 -30 52.875 C-33.37182308 52.875 -35.63920694 55.53785814 -38.1875 57.5625 Z " fill="#B47744" transform="translate(484,1068.125)"/>
<path d="M0 0 C1.43625948 3.33759932 2.20543831 5.24120473 1.23999023 8.80712891 C0.76762939 9.77054199 0.29526855 10.73395508 -0.19140625 11.7265625 C-0.71726318 12.82597168 -1.24312012 13.92538086 -1.78491211 15.05810547 C-2.37151611 16.23518066 -2.95812012 17.41225586 -3.5625 18.625 C-4.16687842 19.87415685 -4.76913806 21.12434081 -5.36938477 22.37548828 C-6.61732487 24.97247747 -7.87425553 27.56481508 -9.13769531 30.15429688 C-11.99070796 36.02084785 -14.70664573 41.95089329 -17.4375 47.875 C-18.50303936 50.17227729 -19.56945777 52.46914703 -20.63671875 54.765625 C-21.17731934 55.92900391 -21.71791992 57.09238281 -22.27490234 58.29101562 C-25.42771403 65.07159857 -28.58845007 71.84848812 -31.75 78.625 C-32.0587204 79.28691345 -32.3674408 79.9488269 -32.68551636 80.63079834 C-33.55565084 82.49620185 -34.42618506 84.3614182 -35.296875 86.2265625 C-35.79541992 87.29471191 -36.29396484 88.36286133 -36.80761719 89.46337891 C-37.52210904 90.98335646 -38.24889011 92.49778021 -39 94 C-37.88963379 93.96447021 -36.77926758 93.92894043 -35.63525391 93.89233398 C-31.52424134 93.7621787 -27.41304565 93.63894351 -23.30175781 93.51782227 C-21.52077543 93.4643798 -19.73984869 93.40904871 -17.95898438 93.35180664 C-15.40246583 93.26995819 -12.84582555 93.1948547 -10.2890625 93.12109375 C-9.49005524 93.09405869 -8.69104797 93.06702362 -7.86782837 93.03916931 C-2.22774341 92.88612829 -2.22774341 92.88612829 0 94 C1.6361389 101.22370759 1.62936733 109.66093693 1 117 C-1.97055518 119.97055518 -5.30361309 119.44772233 -9.30078125 119.58984375 C-10.56659782 119.64506447 -10.56659782 119.64506447 -11.85798645 119.70140076 C-20.73477589 120.07105663 -29.61667888 120.30609657 -38.4987793 120.50268555 C-41.19654676 120.56270126 -43.89416072 120.62772999 -46.59179688 120.69335938 C-50.91090461 120.795817 -55.23005808 120.88321821 -59.54974365 120.95733643 C-61.17678704 120.98566631 -62.80378584 121.0166913 -64.4307251 121.05047607 C-66.67906892 121.09494421 -68.92716335 121.12583003 -71.17578125 121.15234375 C-72.44977783 121.17159912 -73.72377441 121.19085449 -75.03637695 121.21069336 C-78 121 -78 121 -80 119 C-81.07872891 112.8005284 -77.84131432 107.84560443 -75.12890625 102.48828125 C-74.61935394 101.45815918 -74.10980164 100.42803711 -73.58480835 99.36669922 C-71.92149208 96.00981829 -70.24203422 92.66129159 -68.5625 89.3125 C-67.41938827 87.01194048 -66.27754812 84.71074871 -65.13696289 82.40893555 C-62.84865209 77.79254848 -60.55540337 73.17866741 -58.25878906 68.56640625 C-53.75679038 59.51160594 -49.34237311 50.41482669 -44.9375 41.3125 C-44.21769092 39.82780249 -43.49772574 38.34318065 -42.77758789 36.85864258 C-41.18388254 33.57299744 -39.59145462 30.28673606 -38 27 C-39.07483643 27.0407666 -40.14967285 27.0815332 -41.25708008 27.12353516 C-45.24307821 27.27195193 -49.22944273 27.40661191 -53.21606445 27.53710938 C-54.9417817 27.59552576 -56.6673767 27.65767766 -58.39282227 27.72363281 C-60.87233218 27.81776434 -63.3519707 27.89847386 -65.83203125 27.9765625 C-66.60400345 28.00875885 -67.37597565 28.0409552 -68.17134094 28.0741272 C-72.03041447 28.18216648 -73.70221227 28.19852515 -77 26 C-77.46411133 23.89282227 -77.46411133 23.89282227 -77.58203125 21.31640625 C-77.62650391 20.38892578 -77.67097656 19.46144531 -77.71679688 18.50585938 C-77.74837891 17.53455078 -77.77996094 16.56324219 -77.8125 15.5625 C-77.88887695 14.11133789 -77.88887695 14.11133789 -77.96679688 12.63085938 C-78.26307617 5.39461425 -78.26307617 5.39461425 -76 2 C-73.68164062 1.50805664 -73.68164062 1.50805664 -70.65625 1.34765625 C-68.89667969 1.25121826 -68.89667969 1.25121826 -67.1015625 1.15283203 C-65.73449338 1.0988045 -64.36729187 1.04806147 -63 1 C-62.25008789 0.97282898 -61.50017578 0.94565796 -60.72753906 0.91766357 C-55.56194512 0.74008969 -50.39589982 0.60983008 -45.22851562 0.49731445 C-42.53242775 0.43821088 -39.8365465 0.3728571 -37.140625 0.30664062 C-24.75885231 0.01543905 -12.38486148 -0.04963399 0 0 Z " fill="#B47744" transform="translate(1095,302)"/>
<path d="M0 0 C2.79332429 1.09307814 3.52699203 1.99358332 5.03930664 4.55175781 C5.47887695 5.29296875 5.91844727 6.03417969 6.37133789 6.79785156 C6.8109082 7.57773437 7.25047852 8.35761719 7.70336914 9.16113281 C8.16614258 9.92554688 8.62891602 10.68996094 9.10571289 11.47753906 C12.36014729 17.10236747 12.36014729 17.10236747 12.22753906 20.47729492 C11.05528575 23.65030424 9.76737175 24.35799295 6.85571289 26.02441406 C5.9565918 26.54970703 5.0574707 27.075 4.13110352 27.61621094 C2.7128125 28.41188477 2.7128125 28.41188477 1.26586914 29.22363281 C0.31647461 29.77341797 -0.63291992 30.32320313 -1.61108398 30.88964844 C-3.95655498 32.24507138 -6.30973488 33.58460586 -8.67163086 34.91113281 C-4.17824612 43.29771827 0.56248048 51.52713675 5.39086914 59.72363281 C6.14293686 61.00302509 6.89488833 62.28248572 7.64672852 63.56201172 C9.52122138 66.75086302 11.39799754 69.93836224 13.27593994 73.12518311 C14.26359878 74.80121891 15.25083286 76.47750499 16.23803711 78.15380859 C17.39355399 80.11529294 18.54969145 82.07641188 19.70654297 84.03710938 C20.77420724 85.84681879 21.84048794 87.65734529 22.90527344 89.46875 C25.27395053 93.48772558 27.66988831 97.48048361 30.16430664 101.42285156 C30.59614258 102.11330566 31.02797852 102.80375977 31.47290039 103.51513672 C32.26228659 104.77157642 33.06342884 106.02075011 33.87915039 107.26025391 C35.45450613 109.77859381 36.35943426 111.40776005 36.17382812 114.4152832 C35.10964805 117.55681162 34.05804876 118.20250388 31.21508789 119.84082031 C30.37913086 120.32550781 29.54317383 120.81019531 28.68188477 121.30957031 C27.80209961 121.79683594 26.92231445 122.28410156 26.01586914 122.78613281 C25.14768555 123.29660156 24.27950195 123.80707031 23.38500977 124.33300781 C17.0086436 127.95427486 17.0086436 127.95427486 14.21875 127.77734375 C11.76359669 126.65234259 10.99900429 125.46998179 9.57055664 123.18457031 C9.05589844 122.36698242 8.54124023 121.54939453 8.01098633 120.70703125 C5.14836511 115.95039484 2.31127919 111.18088816 -0.47613525 106.37985229 C-2.33253642 103.18256406 -4.19808768 99.99061527 -6.06225586 96.79785156 C-6.44326447 96.14472488 -6.82427307 95.49159821 -7.21682739 94.81867981 C-11.84702079 86.88669731 -16.53822776 78.99102732 -21.22973633 71.09521484 C-25.41117814 64.05353922 -29.55529676 56.99106945 -33.67163086 49.91113281 C-42.41702232 54.60727869 -42.41702232 54.60727869 -50.72241211 60.02832031 C-53.6511977 61.35478433 -55.49896837 61.46236761 -58.67163086 60.91113281 C-60.45212519 58.75919053 -61.63645621 57.0173315 -62.92163086 54.59863281 C-63.25936523 54.00373047 -63.59709961 53.40882813 -63.94506836 52.79589844 C-64.86554813 51.17418702 -65.76931649 49.54302119 -66.67163086 47.91113281 C-67.33163086 46.92113281 -67.99163086 45.93113281 -68.67163086 44.91113281 C-69.07470703 41.92797852 -69.07470703 41.92797852 -68.67163086 38.91113281 C-66.83691406 37.12280273 -66.83691406 37.12280273 -64.22241211 35.64160156 C-62.75324341 34.78598633 -62.75324341 34.78598633 -61.25439453 33.91308594 C-60.17520752 33.31431641 -59.09602051 32.71554687 -57.98413086 32.09863281 C-56.28617897 31.1199805 -54.58824269 30.14130043 -52.89100647 29.16140747 C-51.08018014 28.12046852 -49.2637485 27.08991154 -47.44604492 26.06103516 C-43.60011597 23.87867372 -39.78554486 21.64508712 -35.97631836 19.39941406 C-35.02093422 18.83639839 -35.02093422 18.83639839 -34.04624939 18.26200867 C-32.77308674 17.51163332 -31.49996924 16.76118138 -30.22689819 16.01065063 C-26.14547836 13.60799921 -22.05600732 11.21940596 -17.95825195 8.84472656 C-15.72969494 7.53361592 -13.51929474 6.19123811 -11.32641602 4.82128906 C-10.27115723 4.1703125 -9.21589844 3.51933594 -8.12866211 2.84863281 C-7.19642822 2.25953125 -6.26419434 1.67042969 -5.30371094 1.06347656 C-2.67163086 -0.08886719 -2.67163086 -0.08886719 0 0 Z " fill="#B47744" transform="translate(748.671630859375,381.0888671875)"/>
<path d="M0 0 C1.40158081 2.22634888 1.40158081 2.22634888 2.49169922 5.18017578 C3.1121109 6.8191684 3.1121109 6.8191684 3.74505615 8.49127197 C4.15918762 9.64915222 4.57331909 10.80703247 5 12 C5.41074768 13.10454529 5.82149536 14.20909058 6.24468994 15.34710693 C7.56604157 18.92830981 8.85278884 22.52109174 10.1328125 26.1171875 C10.61467653 27.46317226 11.09685188 28.8090456 11.57931519 30.15481567 C12.84355573 33.68336098 14.10431381 37.21313938 15.36407471 40.74328613 C17.34918204 46.30451648 19.3394631 51.86389458 21.33022308 57.42310333 C22.06848027 59.48706511 22.80454947 61.55179745 23.54034424 63.61663818 C26.0435958 70.62888572 28.59570998 77.61866412 31.22949219 84.58300781 C31.75109542 85.97095976 32.27249179 87.35898947 32.79367065 88.74710083 C33.77590391 91.36307265 34.77378627 93.97230769 35.78079224 96.5788269 C36.21906342 97.74535797 36.65733459 98.91188904 37.10888672 100.11376953 C37.49938202 101.13358917 37.88987732 102.15340881 38.29220581 103.20413208 C39.06681058 106.26390942 38.98329898 108.01945029 38 111 C36.23754883 112.21020508 36.23754883 112.21020508 33.95703125 113.01953125 C33.13009766 113.31923828 32.30316406 113.61894531 31.45117188 113.92773438 C30.58041016 114.21970703 29.70964844 114.51167969 28.8125 114.8125 C27.53536133 115.27946289 27.53536133 115.27946289 26.23242188 115.75585938 C21.69288115 117.35330023 17.87921113 118.4072664 13 118 C6.31113706 100.44888101 -0.09270533 82.79664514 -6.45629883 65.12548828 C-7.19217549 63.08234072 -7.92809664 61.03920918 -8.6640625 58.99609375 C-9.02712997 57.98802673 -9.39019745 56.97995972 -9.76426697 55.94134521 C-11.83811552 50.19215734 -13.93258671 44.45121248 -16.0534668 38.71920776 C-17.29345594 35.36787415 -18.5262331 32.01390811 -19.75866699 28.65979004 C-20.33236463 27.10538229 -20.90987139 25.55237466 -21.49133301 24.00085449 C-22.28772817 21.87508399 -23.0710187 19.74491267 -23.8515625 17.61328125 C-24.29322754 16.42516846 -24.73489258 15.23705566 -25.18994141 14.01293945 C-25.97944968 11.07643507 -26.2248446 9.74538318 -25 7 C-23.3203125 5.875 -23.3203125 5.875 -21.125 5 C-20.31804688 4.67644531 -19.51109375 4.35289062 -18.6796875 4.01953125 C-17.79539062 3.68308594 -16.91109375 3.34664063 -16 3 C-15.05382812 2.61199219 -14.10765625 2.22398437 -13.1328125 1.82421875 C-4.529724 -1.56805598 -4.529724 -1.56805598 0 0 Z " fill="#B47744" transform="translate(846,342)"/>
</svg>
