<svg version="1.1" id="Layer_1" xmlns="http://www.w3.org/2000/svg" xmlns:xlink="http://www.w3.org/1999/xlink" x="0px" y="0px"
	 width="100%" viewBox="0 0 672 1024" enable-background="new 0 0 672 1024" xml:space="preserve">
<path fill="#000000" opacity="1.000000" stroke="none" 
	d="
M673.000000,35.545891 
	C671.551758,34.148052 670.131592,32.568855 667.956055,35.282341 
	C666.695007,36.855171 664.840942,37.319420 662.965149,36.746353 
	C660.429626,35.971729 657.664612,36.958935 656.388611,38.192669 
	C653.229431,41.247021 649.653931,40.828430 645.963928,41.219849 
	C643.056519,41.528252 640.257507,42.355736 637.487427,43.801517 
	C633.732422,45.761284 629.427917,45.812428 625.887390,42.761124 
	C624.422241,41.498417 623.223694,40.782749 621.583740,42.209225 
	C619.883423,43.688278 619.357117,41.992134 618.195190,40.693031 
	C617.663574,42.542908 617.329712,44.271873 615.024536,44.534431 
	C605.788757,45.586365 596.798645,48.406128 587.231689,47.208141 
	C584.369080,46.849689 581.030090,49.070858 579.432983,52.113029 
	C574.187988,49.589653 569.379761,52.296402 564.614380,52.974819 
	C560.734314,53.527203 557.030212,55.184765 552.951538,54.380146 
	C549.931274,53.784317 547.842346,56.811611 544.931091,56.615921 
	C537.886475,56.142395 531.388000,58.896866 524.602661,59.888805 
	C520.435303,60.498028 516.642029,63.451309 512.121155,61.931381 
	C511.793274,61.821148 510.949982,62.253880 510.857849,62.579060 
	C509.187408,68.476135 504.204681,66.132072 500.732788,66.215034 
	C488.430939,66.508995 476.237610,67.545593 464.470306,71.146942 
	C459.308411,72.726746 454.152069,71.178047 448.990417,72.674347 
	C440.281342,75.199005 431.030731,75.422150 422.323212,78.160530 
	C420.547058,78.719109 419.227966,80.024422 417.912079,81.511093 
	C420.344788,83.500092 422.284302,85.638298 420.422699,89.027786 
	C420.129852,89.561020 420.124268,90.328377 420.185730,90.968277 
	C420.995880,99.403099 417.836273,102.453331 409.336731,101.023842 
	C408.980072,100.991714 409.018372,101.013947 409.018372,101.013947 
	C406.888641,97.984283 405.049347,94.896004 406.937225,90.665619 
	C411.197144,92.042984 415.191620,92.523842 417.158356,87.325584 
	C411.795959,84.867111 410.738617,83.012863 412.344299,77.262596 
	C413.387878,73.525459 416.753296,72.716888 420.203430,72.728470 
	C428.514923,72.756363 436.047638,69.502876 443.876373,67.410698 
	C449.176300,65.994331 454.680206,65.312706 460.114319,64.435234 
	C465.297150,63.598339 470.693970,63.486076 474.767212,59.423325 
	C474.987122,59.203968 475.380432,58.982746 475.656860,59.021370 
	C482.340942,59.955288 488.052948,55.013821 494.877136,55.997078 
	C497.453918,56.368351 500.266693,54.607693 503.026001,54.293201 
	C513.879333,53.056198 524.304260,49.682064 535.125244,48.141792 
	C541.877747,47.180634 548.901978,45.502663 554.581787,41.245289 
	C558.532776,38.283756 563.484863,38.538097 567.261475,38.659725 
	C574.240723,38.884499 580.917419,37.095913 587.802429,36.975754 
	C592.273132,36.897728 597.499817,34.965530 601.563171,31.437384 
	C603.173035,30.039560 606.253357,29.927977 608.663330,29.930801 
	C618.067444,29.941822 627.018860,27.496054 636.046936,25.375875 
	C638.630615,24.769115 641.265015,24.367254 643.887268,23.939156 
	C646.289062,23.547041 648.271973,23.170950 648.850403,26.848484 
	C649.237671,29.310598 654.950684,27.737148 653.498413,32.209335 
	C656.358154,32.157318 656.341553,29.741875 657.835144,29.052717 
	C661.952271,32.735825 670.199646,31.274103 672.808838,26.225554 
	C673.000000,29.030594 673.000000,32.061188 673.000000,35.545891 
M631.610901,34.841156 
	C631.619019,33.467209 632.385132,31.920845 630.560364,30.758722 
	C629.108337,31.911594 626.954529,32.838116 627.819153,35.134109 
	C628.375854,36.612206 630.026550,37.002419 631.610901,34.841156 
z"/>
<path fill="#000000" opacity="1.000000" stroke="none" 
	d="
M1.000000,294.416656 
	C14.428690,295.557281 27.749098,297.543976 40.126217,303.304871 
	C30.924953,305.088104 22.516977,302.011810 13.948286,299.950043 
	C9.943440,298.986389 5.953154,297.587463 1.364283,298.880066 
	C1.000000,297.611115 1.000000,296.222198 1.000000,294.416656 
z"/>
<path fill="#000000" opacity="1.000000" stroke="none" 
	d="
M213.064972,304.104401 
	C201.859512,304.231232 191.050201,304.288818 180.240829,304.301819 
	C171.115341,304.312805 161.983337,304.046783 152.865768,304.307129 
	C139.130020,304.699310 130.635010,314.765167 127.579819,326.402985 
	C127.332100,327.346649 127.108650,328.535248 127.459351,329.361542 
	C132.576065,341.417023 128.235413,353.778809 128.676834,365.975250 
	C129.030167,375.737274 128.774094,385.520569 128.865265,395.293701 
	C128.880768,396.955444 129.127731,398.565826 127.587807,399.881439 
	C125.424599,397.942322 125.731766,395.519440 125.786537,393.283997 
	C126.108604,380.138550 125.376251,367.002991 126.387001,353.829559 
	C127.077415,344.831116 125.404823,335.674225 125.687233,326.616211 
	C126.118134,312.795410 139.818420,299.986420 153.278336,300.515320 
	C173.409119,301.306335 193.618698,301.194031 213.754196,300.416077 
	C230.100754,299.784546 246.419083,300.013245 262.679443,300.899902 
	C280.854340,301.890930 298.966461,301.039337 317.062164,300.411835 
	C333.393524,299.845459 349.691376,300.509125 365.968597,300.191650 
	C385.620331,299.808289 405.267212,299.859131 424.915039,299.649384 
	C425.713257,299.640869 426.513702,299.841858 428.184570,300.057953 
	C424.834717,302.412659 421.603119,303.866882 418.692261,303.922363 
	C410.917969,304.070496 403.153839,304.435547 395.308472,303.041382 
	C384.907684,301.193085 374.270264,301.016174 364.479340,306.159454 
	C362.428589,307.236755 360.601196,305.196686 357.933685,307.359253 
	C355.518799,309.317017 353.993835,312.434845 350.953308,313.738831 
	C349.226471,314.479431 348.814209,316.619751 350.390015,317.299164 
	C355.936523,319.690491 357.092590,325.742554 361.115295,329.393890 
	C363.994293,332.007141 366.878754,333.836029 370.811462,333.714020 
	C379.139221,333.455658 387.336792,334.915649 395.595673,335.568207 
	C396.557281,335.644196 397.619385,335.787170 398.316650,334.799194 
	C396.434143,327.872040 396.642883,327.344452 401.976562,325.553467 
	C402.143005,325.827454 402.449585,326.107208 402.444458,326.381104 
	C402.262939,336.079132 407.426025,340.124237 417.758789,337.914764 
	C421.147156,337.190216 424.157349,337.815979 427.324615,339.058228 
	C420.769714,341.637970 414.118530,342.218994 406.957367,339.977142 
	C404.317688,341.942108 405.789795,346.624878 402.335846,348.656097 
	C398.598389,345.910095 402.959625,334.670410 391.641937,339.327454 
	C399.060822,343.365692 395.047058,349.321014 396.178345,355.425842 
	C393.245300,353.362427 394.378052,351.092072 393.410675,349.318573 
	C393.673309,352.652222 392.474487,355.301086 389.886780,357.076813 
	C387.394623,358.786957 384.468262,358.979767 381.507416,359.543793 
	C374.328003,360.911285 366.697113,360.460968 360.077301,364.828583 
	C356.570221,367.142487 352.758759,363.799957 349.044739,363.290985 
	C347.440857,363.071167 345.892212,362.410431 344.230469,362.800873 
	C340.240814,363.738281 336.585205,363.484985 333.061554,360.928619 
	C330.459564,359.040863 327.799225,362.464600 325.066376,361.610962 
	C323.256653,360.320648 324.763306,352.574707 319.351624,358.727905 
	C313.815704,355.002716 309.806915,360.731323 304.927399,361.040405 
	C304.162262,361.088867 303.324219,362.699219 302.592255,360.957397 
	C300.691010,356.433136 298.963959,358.566467 298.279968,361.401428 
	C297.546692,364.440674 291.931305,364.275635 294.611847,369.183319 
	C288.181549,367.621948 284.182068,362.635651 277.805420,362.332703 
	C275.938202,363.383698 276.211334,365.687164 276.181580,367.810089 
	C275.987640,381.637238 276.895050,395.410980 277.809631,409.204224 
	C278.557037,420.476105 278.364899,431.801300 279.106598,443.104156 
	C280.337036,461.855164 281.028809,480.642822 281.839600,499.419678 
	C282.384521,512.040283 282.957794,524.666260 283.115784,537.294861 
	C283.235779,546.885010 280.243500,549.807251 270.494171,551.142700 
	C256.733765,553.027466 242.893661,552.439026 229.099380,552.183899 
	C207.126556,551.777588 185.239594,553.109375 163.339554,554.419495 
	C153.878616,554.985474 152.261230,553.645996 151.936661,544.061096 
	C151.469055,530.251221 151.227631,516.433838 150.881607,502.619843 
	C150.181229,474.659332 149.985703,446.672882 148.558228,418.749481 
	C147.836456,404.630707 148.613251,390.475372 147.040359,376.391510 
	C146.547348,371.977020 148.717957,369.172272 153.425583,368.478241 
	C159.565567,367.573059 165.743362,367.738190 171.887466,367.785034 
	C187.896927,367.907013 203.801437,365.870178 219.795670,365.759949 
	C224.642960,365.726562 224.732315,364.899292 223.054016,360.183105 
	C221.363983,355.433929 223.350723,350.040283 219.510803,345.049347 
	C223.312012,345.699005 223.312012,345.699005 228.321777,357.497131 
	C228.321777,351.579376 228.321777,345.661621 228.321777,340.382782 
	C221.712692,339.981079 215.221069,336.986206 208.067657,337.507446 
	C222.535233,335.849152 236.201004,332.936279 245.387070,321.020721 
	C254.150009,327.268280 263.103851,330.501984 273.652039,330.098083 
	C278.610657,329.908203 283.901917,330.364319 288.836334,332.250824 
	C292.123993,333.507721 295.507111,333.311951 299.111176,332.660004 
	C306.434662,331.335266 313.552460,333.419250 320.519928,335.572906 
	C327.285614,337.664185 333.777405,335.896149 339.795868,333.430420 
	C343.759705,331.806458 341.371368,327.128937 341.484589,323.842102 
	C341.539398,322.250854 340.914185,320.727966 341.792450,319.080383 
	C346.180603,310.848419 341.909576,304.525177 332.540863,303.870667 
	C318.875977,302.915924 305.369415,304.334686 291.781708,304.972015 
	C276.026276,305.711029 260.147064,304.468719 244.460785,305.767578 
	C235.576324,306.503265 227.541748,302.438293 218.860199,303.623718 
	C217.120514,303.861267 215.238022,303.413116 213.064972,304.104401 
M225.513489,369.226929 
	C215.868835,369.583313 206.226028,370.004974 196.579071,370.280548 
	C182.594009,370.680054 168.607117,371.093170 154.618347,371.233704 
	C150.866364,371.271393 149.973434,372.836304 150.379089,376.091827 
	C152.174469,390.500793 151.356277,405.019897 151.952606,419.479828 
	C153.001862,444.922333 153.108597,470.408600 154.091965,495.867645 
	C154.747452,512.838074 154.999283,529.825623 155.271698,546.808105 
	C155.329971,550.440063 156.210373,551.584045 160.228119,551.287354 
	C175.323761,550.172791 190.450226,549.186523 205.579666,548.887512 
	C227.217911,548.459900 248.876389,549.478333 270.503571,547.773560 
	C278.160339,547.169922 280.194153,545.330933 279.862793,537.579956 
	C278.860718,514.139709 277.793274,490.702179 276.748535,467.263702 
	C275.391632,436.822632 274.016144,406.382385 272.687469,375.940094 
	C272.432495,370.098358 271.637421,369.209381 266.003998,369.209778 
	C252.838943,369.210663 239.673889,369.210999 225.513489,369.226929 
z"/>
<path fill="#000000" opacity="1.000000" stroke="none" 
	d="
M266.364655,147.566345 
	C265.362885,149.621597 267.609161,150.355759 267.091583,151.720993 
	C264.833069,158.900253 258.679535,164.830429 261.268677,173.577469 
	C262.788635,178.712433 260.938873,181.235565 256.174103,182.012024 
	C254.881363,180.488327 255.950226,179.223297 256.668091,177.950592 
	C257.272400,176.879257 257.879883,175.730377 256.567780,174.887573 
	C255.217377,174.020157 254.413940,174.904663 253.969406,176.172577 
	C253.443069,177.673828 252.774124,179.089600 250.827103,178.595474 
	C249.090820,178.154816 248.402222,177.022308 249.038086,175.183655 
	C249.577255,173.624603 248.333572,173.709610 247.369125,173.527863 
	C246.082153,173.285339 245.530823,171.786102 246.156326,171.351578 
	C248.852737,169.478485 248.001984,165.407654 250.980667,163.915833 
	C252.097351,163.356567 252.140869,162.607361 252.299606,161.556305 
	C252.794449,158.279861 251.572418,155.113129 251.984100,151.772278 
	C252.205643,149.974487 250.489944,148.471573 247.756088,149.062180 
	C244.086044,149.855026 240.654633,153.192642 236.385468,150.064163 
	C235.311432,149.277084 233.600906,151.333618 232.225372,152.264877 
	C229.554688,154.072952 227.256607,157.724823 223.171936,154.873932 
	C223.268494,161.183731 217.587830,162.433395 213.927322,164.993195 
	C210.486618,167.399261 206.669662,168.374252 204.626236,173.111237 
	C202.847580,177.234451 197.561279,178.873428 193.239105,180.667191 
	C192.025238,181.170975 190.669220,181.267960 189.649704,182.284103 
	C188.224213,183.704865 188.285477,187.012955 185.341003,186.437790 
	C180.513565,185.494843 175.405472,187.440277 170.740540,184.405106 
	C164.277771,180.200256 160.689651,180.859909 155.630920,186.450638 
	C152.517532,185.529938 155.105438,182.512283 153.663513,180.986969 
	C148.804352,185.714111 148.804352,185.714111 148.441757,189.391052 
	C147.507385,191.284500 145.483582,188.785309 144.008316,191.213165 
	C151.043961,207.085815 152.316772,223.482697 142.090790,239.623840 
	C139.200607,238.116074 139.888046,235.771286 140.154770,233.528152 
	C140.732773,228.667389 142.767944,224.155457 141.991577,218.902725 
	C141.252502,213.902222 141.241608,209.003372 137.185410,205.276688 
	C136.608582,204.746750 136.016434,203.810257 136.056946,203.097488 
	C136.437546,196.401230 131.907349,196.219666 127.175865,196.260254 
	C125.915466,196.271057 124.779671,196.041794 124.540329,194.577972 
	C124.348030,193.401794 125.149719,192.597031 126.106827,192.305389 
	C135.852814,189.335693 140.179718,181.629883 142.144150,172.653824 
	C143.157593,168.023102 145.221588,164.818832 148.727737,162.125031 
	C154.587433,157.623001 158.924759,151.584778 165.700684,147.782623 
	C171.822815,144.347321 177.809845,145.877808 183.964111,145.031616 
	C177.956039,146.989288 171.910004,148.661697 167.595337,153.558243 
	C174.095703,163.188126 182.526855,162.590164 191.337372,157.632965 
	C193.755081,156.272659 196.626984,154.742661 198.745361,155.281403 
	C203.500626,156.490784 205.087906,152.685822 207.902618,150.869858 
	C210.065231,149.474594 209.206467,147.269318 208.737976,145.394379 
	C208.215469,143.303268 206.406433,143.259674 204.683395,143.478500 
	C201.988968,143.820724 199.449677,143.629440 196.619598,141.624878 
	C201.170944,138.377335 206.857086,136.896927 210.749496,137.716675 
	C218.059036,139.256073 224.378174,138.286392 230.870026,135.130447 
	C235.168655,146.007065 244.082245,140.122635 250.954193,141.397308 
	C252.377853,140.494339 250.947998,138.290863 252.714233,137.547592 
	C259.990814,138.667038 260.420532,138.458801 260.219543,133.516434 
	C257.115112,134.528854 254.388794,134.686386 253.928192,130.335815 
	C253.790466,129.034912 251.982620,129.385590 250.995224,128.892548 
	C248.475113,127.634171 245.585022,126.564430 245.487457,121.869179 
	C248.876419,125.372398 252.181702,126.736122 256.727295,125.279251 
	C253.125839,123.315628 250.898819,120.847260 248.994308,117.328613 
	C246.991867,113.628998 241.372467,113.039200 237.312103,111.440094 
	C228.563629,107.994667 218.796127,107.732101 210.219986,103.465973 
	C210.079697,103.396187 209.889465,103.434738 209.728058,103.398293 
	C207.619461,102.922096 204.070633,105.796761 203.635437,101.818375 
	C203.296783,98.722496 207.227921,99.800369 209.019882,98.655960 
	C213.211380,95.979095 218.182388,96.138550 222.579788,94.307404 
	C223.771408,96.488457 220.576752,96.463715 221.130035,98.429306 
	C222.347656,100.551300 224.150330,98.925133 225.754807,98.603577 
	C227.235718,98.306770 227.657562,96.897026 228.409988,95.809700 
	C229.802795,93.796989 231.680969,93.757553 232.807297,95.765396 
	C234.251205,98.339378 236.159500,99.760864 239.002823,100.216080 
	C240.622330,100.475349 241.686401,101.796219 242.310638,103.071693 
	C243.637711,105.783249 245.304337,107.406036 248.538620,106.571953 
	C248.973083,106.459908 249.604492,106.583855 249.976837,106.841309 
	C253.277420,109.123337 255.933365,113.315392 260.814728,111.242119 
	C265.109680,109.417892 268.201324,113.359749 272.073486,113.240578 
	C273.577850,110.251335 269.406403,110.176147 269.490936,107.491150 
	C272.548645,108.422913 275.072571,106.832832 278.220398,106.124054 
	C267.705963,105.648987 270.338501,96.116898 265.630981,89.887108 
	C270.691772,90.337013 274.872467,88.045479 276.989532,93.608467 
	C277.780823,95.687607 279.934418,96.148613 281.811554,96.837837 
	C284.700714,97.898651 285.316193,96.524590 285.217682,93.927689 
	C285.104095,90.931503 283.138153,88.871162 281.594238,86.577080 
	C285.493774,84.803467 285.884552,84.774796 288.403564,92.931061 
	C289.515076,96.529999 295.143982,97.835915 292.703583,103.421822 
	C298.045227,98.814964 300.802246,91.212608 309.219238,93.482590 
	C309.640900,90.672287 306.433838,92.280052 306.645264,89.919319 
	C308.617188,88.619980 312.433014,88.602684 311.864044,84.372047 
	C311.515930,81.783707 309.701996,81.356186 307.656494,80.891426 
	C310.747345,78.178108 309.389099,72.916725 305.356812,71.549889 
	C302.870941,70.707222 300.310211,70.038208 297.737244,69.517914 
	C296.249115,69.216972 295.172577,68.873375 295.368439,67.056412 
	C303.932037,63.189453 311.144592,67.860252 318.091736,71.378456 
	C320.574280,72.635689 323.913269,73.579170 325.784943,76.968285 
	C328.700439,82.247498 329.598846,91.085945 326.165009,96.220360 
	C324.447998,98.787766 322.494690,101.233124 320.604370,103.667671 
	C317.299469,107.923996 315.195770,113.113022 312.630402,117.834572 
	C314.414703,119.363312 315.697357,116.791489 317.117249,117.985382 
	C317.676605,122.955826 317.676605,122.955826 315.690125,126.279709 
	C313.787506,126.830460 313.842438,124.050674 311.883911,124.205040 
	C312.187469,126.937851 312.351013,129.810562 315.507629,130.602814 
	C318.309113,131.305923 321.130890,131.008438 323.122894,128.275238 
	C325.119293,125.536079 328.293243,123.661690 328.346069,119.576141 
	C328.373199,117.479378 330.022736,115.765518 332.430359,116.130173 
	C335.318573,116.567619 333.761444,118.756088 333.956696,120.424530 
	C334.711304,126.872849 332.196472,131.362915 326.532684,134.271591 
	C325.617462,134.741608 324.719849,135.364136 324.717255,136.471710 
	C324.706055,141.212387 322.668182,143.735779 317.897644,145.378082 
	C311.000641,147.752457 306.257141,153.106979 303.529907,160.216080 
	C301.929901,158.860199 302.302277,156.855667 300.174774,156.159821 
	C297.373932,158.659470 293.751709,157.382507 292.005310,155.045242 
	C290.414154,152.915771 289.876282,149.414047 291.022827,146.158661 
	C292.111359,143.068039 293.772736,139.241531 287.517365,139.744354 
	C284.489532,139.987747 286.143158,137.519028 285.982361,136.172287 
	C275.981964,135.685043 270.461761,136.637268 266.364655,147.566345 
M163.242416,162.040009 
	C157.263962,162.428909 153.136826,165.264160 150.870270,171.106186 
	C152.953735,172.141098 154.847229,172.103577 156.513412,171.481384 
	C161.296722,169.695236 165.530136,171.679962 169.307846,173.817123 
	C175.315369,177.215790 181.223602,178.150436 187.815918,176.126068 
	C191.516708,174.989624 193.471024,172.635498 194.646606,169.227661 
	C192.873596,167.808380 191.114227,167.478622 189.272919,167.566269 
	C185.472763,167.747116 181.607422,168.543533 177.894089,168.081177 
	C172.785904,167.445190 166.846329,167.985657 164.618240,162.203033 
	C166.442917,162.989365 168.236557,165.035187 170.314270,162.212814 
	C168.505630,160.004242 166.707520,157.808517 164.769012,155.441376 
	C162.254257,157.714218 163.331436,159.885757 163.242416,162.040009 
M301.404266,120.872101 
	C306.686249,119.083611 303.767426,112.782349 307.666595,110.826462 
	C305.378204,106.223991 301.004944,112.210838 298.926178,106.531982 
	C296.493103,112.656006 293.081146,116.914253 291.894196,122.742752 
	C295.576599,122.595673 297.050659,116.439346 301.404266,120.872101 
M301.546936,138.669785 
	C297.174744,141.097488 300.178894,145.458359 298.059998,149.223083 
	C302.650940,147.971069 305.058014,145.830032 305.709320,142.026932 
	C306.166382,139.358215 303.856659,139.379669 301.546936,138.669785 
M265.634735,122.588585 
	C261.541260,122.411385 262.936584,126.459396 260.240021,128.406708 
	C265.274170,128.745560 265.665771,126.067749 265.634735,122.588585 
M309.750000,133.816956 
	C308.414368,133.937225 307.109711,132.077423 305.585480,133.823273 
	C306.266510,135.539612 308.070709,135.946686 309.280151,136.974731 
	C310.222961,137.776169 311.221008,137.283493 311.785278,136.321335 
	C312.691498,134.776062 311.626160,134.264252 309.750000,133.816956 
z"/>
<path fill="#000000" opacity="1.000000" stroke="none" 
	d="
M408.959991,100.981987 
	C410.501312,103.314217 416.007751,102.625336 413.851501,107.546860 
	C421.934021,109.363457 428.409546,113.086838 432.459351,120.324501 
	C433.465332,122.122337 434.930328,123.412300 436.706268,124.430176 
	C442.287354,127.628944 448.443909,129.873276 453.228546,134.404480 
	C453.798126,134.943924 454.590698,135.247894 455.138397,135.576202 
	C457.766998,134.791458 455.294647,131.244247 458.160980,130.874619 
	C462.685486,134.689606 463.644714,134.688019 468.033661,130.234558 
	C469.162872,129.088730 470.208954,129.161697 471.605103,129.269653 
	C477.995331,129.763855 484.393158,130.218384 490.796844,130.458649 
	C494.844849,130.610550 498.277557,127.732361 502.809937,128.663193 
	C508.556793,129.843445 514.569336,130.213333 520.527039,128.786087 
	C522.623657,128.283813 523.343994,130.235321 522.070007,131.576447 
	C520.689087,133.030151 520.402161,135.807480 517.564575,135.773071 
	C516.973145,135.765900 515.912720,136.144043 515.851196,136.485596 
	C514.968506,141.386749 513.009644,142.919449 507.954468,140.477570 
	C505.913086,139.491501 507.213318,144.779953 503.462646,144.774673 
	C508.252930,147.671204 513.556335,149.688873 510.298218,156.549362 
	C508.648865,157.055893 506.214355,157.139389 504.664734,159.195999 
	C505.168701,161.392334 507.022003,160.612671 508.317719,160.937607 
	C509.854553,161.322998 511.903290,160.901642 512.187622,163.231949 
	C512.438049,165.284668 513.522034,167.506607 511.207611,169.199142 
	C509.095245,170.743866 508.567749,173.205566 507.131561,175.381516 
	C512.113220,178.393997 519.718628,174.419403 521.650513,182.452881 
	C526.541199,180.375916 531.020325,179.423843 535.809570,182.840012 
	C539.113037,185.196365 544.001831,184.805756 546.818481,188.591965 
	C547.501160,189.509567 549.164124,190.021866 550.427917,190.132645 
	C562.096680,191.155457 568.878235,198.562195 574.785645,207.738144 
	C578.037964,212.789993 583.147156,216.526382 585.379700,222.463821 
	C587.248474,227.433701 587.183899,233.838120 584.389893,236.342636 
	C582.576843,232.862228 579.584229,230.389130 578.442810,226.335205 
	C577.211731,221.962769 573.285828,218.805267 570.184631,215.926865 
	C560.495300,206.933685 551.244385,197.090134 538.131287,192.674057 
	C531.712097,190.512283 525.197876,188.739105 518.658936,187.004517 
	C515.953369,186.286789 513.250488,185.321304 510.993469,183.488434 
	C510.486755,183.076935 509.640717,182.382462 509.322113,182.545166 
	C504.376801,185.070496 500.577698,181.312332 496.283112,180.319794 
	C494.838379,179.985886 493.225525,179.874237 492.101959,181.217651 
	C490.839996,182.726547 489.171570,184.337387 487.599274,182.483780 
	C485.909729,180.491943 482.480225,179.934418 482.646240,176.201004 
	C482.760071,173.641876 484.282471,171.541794 484.442993,168.497192 
	C480.202423,168.190796 478.552338,172.261932 475.460358,173.473724 
	C474.483459,173.856567 474.075958,175.932465 472.444855,175.441208 
	C470.580872,174.879776 470.073639,172.964767 470.009705,171.413483 
	C469.897583,168.694275 470.331940,165.952499 470.479187,163.994370 
	C477.469482,162.640320 482.480469,159.202011 487.853485,154.465378 
	C482.382172,152.500168 477.883453,151.809341 473.749878,153.509720 
	C472.989716,155.175247 473.351593,155.626160 473.996857,156.011353 
	C474.539337,156.335175 475.033264,156.740311 475.584991,157.135452 
	C474.553680,160.260941 472.055328,160.972076 469.244293,161.358414 
	C469.240387,165.393921 468.193329,167.921066 463.474854,168.503418 
	C458.927124,169.064697 456.797607,173.793808 453.596405,177.556473 
	C452.625854,174.359726 453.377533,171.202927 448.703339,170.404694 
	C451.281158,169.177490 452.415466,168.637512 453.869843,167.945129 
	C453.199615,167.542358 452.856659,167.251434 452.461334,167.126694 
	C452.167572,167.034027 451.742462,167.048157 451.483551,167.199265 
	C439.898132,173.961411 425.674591,171.804550 413.992126,178.296387 
	C411.836365,179.494324 409.221527,179.944855 408.056763,182.486420 
	C407.595123,183.493698 406.811920,183.898239 405.784912,184.196274 
	C398.769897,186.232010 392.889221,189.582458 387.934601,195.433167 
	C384.608704,199.360580 381.020599,203.202087 378.048248,207.397217 
	C370.615753,203.055649 370.676544,199.182419 376.217102,193.298782 
	C382.291382,186.848404 389.603424,181.696411 394.854645,174.294922 
	C397.133453,171.082947 400.600098,167.973907 405.715851,167.429993 
	C409.825104,166.993103 412.894989,162.985291 417.175842,161.748489 
	C422.109070,160.323212 426.664246,160.205765 431.041840,163.074432 
	C432.564026,164.071915 434.432587,165.941345 435.824615,164.212860 
	C437.473846,162.165009 439.623535,158.757523 437.876190,156.636108 
	C434.530396,152.574142 437.751465,152.053375 440.206116,150.796127 
	C434.122040,146.300995 434.267365,144.938812 440.966949,140.045685 
	C436.681549,134.779663 430.310730,132.230026 425.048523,128.150238 
	C423.039520,126.592659 421.014496,125.805138 418.765869,127.755997 
	C416.210144,129.973282 413.430695,128.732422 410.734741,128.127823 
	C410.135284,127.993393 409.448914,126.961525 409.118896,127.099503 
	C401.918396,130.109879 392.578217,123.481590 386.597626,132.081436 
	C386.104584,132.790390 384.937073,133.030289 384.092621,133.482941 
	C381.239532,128.659683 383.634857,119.966362 388.634521,116.731628 
	C390.635284,115.437172 392.630310,114.330780 392.697571,111.523834 
	C392.722717,110.475090 393.509460,109.519745 394.512543,109.346008 
	C400.156586,108.368454 404.268402,104.833740 408.699768,101.142166 
	C409.018372,101.013947 408.980072,100.991714 408.959991,100.981987 
M399.616058,114.983597 
	C398.807404,116.297630 396.929962,117.195946 398.126129,119.652847 
	C404.265381,119.105530 410.527374,118.547272 417.246277,117.948273 
	C407.899811,110.974861 405.530762,110.528580 399.616058,114.983597 
M505.281555,135.675781 
	C511.998840,138.181854 512.724609,137.921295 512.594849,132.721924 
	C510.030548,133.714737 506.741943,131.789566 505.281555,135.675781 
M470.139954,143.266327 
	C469.986877,141.158005 468.483063,140.861633 466.988220,141.346146 
	C464.453705,142.167618 465.121185,144.285721 465.187958,146.407822 
	C467.615662,146.722107 469.233826,146.163208 470.139954,143.266327 
M462.684540,151.292099 
	C461.290344,151.198639 460.492157,149.206879 458.675262,150.049896 
	C459.180298,151.428619 459.549072,152.809143 460.180542,154.056686 
	C460.844696,155.368835 462.169525,154.848587 463.247711,154.753601 
	C464.270599,154.663498 465.266846,154.203079 465.315216,153.056854 
	C465.369080,151.781967 464.213928,151.651077 462.684540,151.292099 
M473.729980,145.710052 
	C476.152679,145.766052 477.718903,144.778030 478.314758,142.252991 
	C473.103577,141.618866 472.880646,141.766800 473.729980,145.710052 
M491.024323,147.578506 
	C490.421021,147.029327 489.404663,146.259735 488.994141,147.009094 
	C487.931335,148.949142 488.932556,150.602982 490.359741,152.205017 
	C492.638885,151.137894 493.011810,149.832260 491.024323,147.578506 
M494.661041,157.164246 
	C492.631897,158.212448 491.427704,159.719650 491.614929,162.257507 
	C495.044098,160.921417 495.044098,160.921417 494.661041,157.164246 
z"/>
<path fill="#000000" opacity="1.000000" stroke="none" 
	d="
M136.825317,890.816223 
	C137.856079,884.432983 144.034378,888.401245 144.648346,888.795410 
	C148.134216,891.033386 151.308273,889.805115 154.694794,889.455811 
	C168.980408,887.982544 183.316910,888.977478 197.629547,888.777100 
	C231.226135,888.306702 264.831329,888.305847 298.421783,887.587219 
	C326.874786,886.978577 355.340515,886.122925 383.748230,884.473816 
	C413.823364,882.727783 443.895966,881.007202 473.987610,879.571777 
	C480.779236,879.247803 487.551361,877.180725 494.286865,877.389221 
	C501.086273,877.599670 506.092743,872.274597 512.575256,872.755554 
	C516.618225,873.055542 520.723083,870.760864 524.942749,873.016663 
	C527.389465,870.946533 524.450256,866.801575 528.145508,864.334961 
	C530.427002,869.115173 531.929321,874.159668 531.950562,879.018860 
	C531.976074,884.883484 527.217651,887.693970 521.624756,889.133667 
	C524.298279,889.279541 527.403381,887.443542 528.648682,891.794739 
	C523.375854,892.936951 518.461426,894.372559 513.067688,894.296387 
	C493.135284,894.014771 473.245819,895.536865 453.334808,896.217712 
	C426.266998,897.143188 399.202179,898.154541 372.135284,899.107239 
	C369.717926,899.192322 367.240326,899.420166 363.981049,897.623352 
	C368.020294,896.117615 371.308350,897.044800 375.052460,896.414612 
	C369.666962,896.414612 364.918701,896.193665 360.196106,896.448608 
	C309.982574,899.158691 259.748840,900.990540 209.449112,900.256104 
	C192.578720,904.328674 175.423981,901.398865 158.420517,902.266724 
	C151.593262,902.615173 144.830765,901.443848 138.261337,899.408508 
	C136.873230,898.978394 135.418091,898.705444 134.219223,895.818481 
	C153.283096,902.814392 172.024979,898.812500 190.554443,899.373962 
	C180.066238,899.373962 169.578018,899.366638 159.089828,899.377869 
	C155.425262,899.381775 151.816223,899.085327 148.171295,898.522888 
	C144.298569,897.925293 142.589508,896.697998 144.457886,892.707764 
	C144.674316,892.245605 144.255890,891.486206 144.165970,891.035767 
	C142.673309,890.175964 142.470459,892.160339 140.927734,891.764160 
	C139.247681,891.375122 138.036499,891.095642 136.825317,890.816223 
M499.817871,885.015564 
	C501.918854,882.812683 500.159210,882.220703 498.401154,881.898621 
	C493.957153,881.084534 489.527069,881.421509 485.059570,882.025391 
	C474.390839,883.467407 463.719788,885.484802 453.003418,885.828491 
	C440.147888,886.240723 427.287537,886.386047 414.434540,887.151855 
	C404.830597,887.724182 395.223206,889.110413 385.686005,889.092163 
	C380.127899,889.081604 374.493591,889.012695 368.949829,889.339355 
	C357.676514,890.003784 346.371490,890.077454 335.121613,891.475098 
	C330.327240,892.070740 325.368256,892.132385 320.404633,890.913147 
	C314.201813,889.389526 307.825256,891.931274 301.714478,891.643494 
	C289.243774,891.056091 276.882019,893.697876 264.995148,891.924377 
	C264.271790,896.358398 261.443359,895.367859 259.530884,894.214478 
	C256.793732,892.563721 254.003189,892.363953 251.023514,892.399475 
	C245.936188,892.460083 240.848068,892.448914 235.760406,892.486084 
	C227.462601,892.546753 219.164108,892.581238 210.868134,892.741577 
	C209.794586,892.762268 207.987183,892.470215 208.222519,894.989746 
	C213.954712,894.661133 219.350174,896.790649 225.162918,896.612976 
	C228.913361,896.498413 232.751236,895.737976 236.340240,896.123840 
	C243.549881,896.898987 250.606766,895.284119 257.824707,895.852966 
	C264.916443,896.411926 272.147247,894.951477 279.327728,894.738770 
	C283.439697,894.617004 287.581604,895.541138 291.695251,895.432922 
	C308.946198,894.979248 326.197205,894.438965 343.436096,893.662292 
	C350.194702,893.357910 357.270752,893.568481 363.620178,892.330383 
	C372.004944,890.695374 380.031464,892.992126 388.372864,891.633362 
	C399.421570,889.833496 410.963226,891.329773 422.227051,890.506592 
	C434.136719,889.636169 446.072540,890.101990 457.988464,889.013123 
	C463.730408,888.488525 469.725525,888.486816 475.499481,888.151123 
	C481.239471,887.817261 486.932526,884.889709 492.880890,886.684814 
	C495.550812,887.490601 497.369110,886.295898 499.817871,885.015564 
M181.570343,895.680725 
	C186.623459,896.310608 191.476532,895.373169 196.311264,893.878418 
	C185.545609,893.787781 174.918869,891.986389 163.099243,892.233154 
	C169.341660,895.481140 175.145096,895.233459 181.570343,895.680725 
M415.340149,894.277771 
	C405.375427,894.647583 395.410706,895.017395 385.445953,895.387207 
	C385.457672,895.615173 385.469391,895.843140 385.481110,896.071045 
	C399.383453,895.498657 413.285797,894.926208 427.188110,894.353821 
	C423.458740,892.830566 419.926453,894.577087 415.340149,894.277771 
M519.486694,878.310120 
	C521.204285,879.659424 523.345886,877.690613 525.102051,879.064270 
	C523.630493,882.050964 525.013916,882.343811 527.546509,881.879761 
	C527.806396,879.328979 527.690552,877.303833 525.311646,876.136963 
	C522.849304,874.929077 521.317749,876.590149 519.486694,878.310120 
M469.570984,892.662659 
	C462.174347,892.273376 454.780884,892.013977 447.428406,892.757507 
	C454.663605,892.757507 461.898804,892.757507 469.570984,892.662659 
z"/>
<path fill="#000000" opacity="1.000000" stroke="none" 
	d="
M405.899902,819.136292 
	C391.942841,819.441833 378.434387,820.457520 364.998535,819.854614 
	C352.053436,819.273743 338.998810,822.027344 326.137482,819.378296 
	C326.119507,818.810242 326.101532,818.242126 326.083588,817.674011 
	C335.908356,817.674011 345.733154,817.674011 355.557922,817.674011 
	C355.743317,817.309143 355.928680,816.944214 356.114075,816.579346 
	C352.325745,813.583557 352.595886,809.579712 352.646759,805.546021 
	C352.749786,797.381409 352.707428,789.214539 352.673920,781.048767 
	C352.633911,771.303345 348.300812,764.919006 340.012115,762.281677 
	C330.417664,759.229004 321.153473,761.794373 315.767700,769.002197 
	C315.192932,769.771423 314.822052,770.770813 313.762756,770.853638 
	C313.484833,770.706604 313.243622,770.654785 313.223877,770.557861 
	C311.501068,762.096375 311.502258,762.096436 302.127045,762.097412 
	C297.194183,762.097961 292.261292,762.097473 286.737671,762.097473 
	C291.416046,764.441101 292.399414,768.139160 292.343872,772.615417 
	C292.195068,784.612244 292.327637,796.612366 292.294525,808.611023 
	C292.283051,812.777649 290.904999,815.998047 286.026276,816.799011 
	C291.512421,801.795044 287.702301,786.511292 288.943207,771.543762 
	C289.147705,769.076904 288.233582,767.124451 286.639221,765.194458 
	C283.908539,761.888916 284.786682,759.206604 288.837006,759.042480 
	C296.318787,758.739258 303.824829,758.957336 311.318817,759.078918 
	C313.714447,759.117737 315.093506,760.967651 316.435089,763.059265 
	C322.957855,758.782349 329.881409,757.195496 337.420593,758.735107 
	C349.500946,761.202087 356.283417,770.004456 355.859802,782.327087 
	C355.575348,790.601135 355.627533,798.887634 355.607513,807.168762 
	C355.604736,808.307373 355.920624,809.497192 356.321838,810.576721 
	C357.519836,813.799927 359.388214,814.707092 361.505157,811.427246 
	C366.560883,803.594360 371.527710,795.701172 376.377045,787.738953 
	C380.495819,780.976257 384.400085,774.083008 388.866119,766.449585 
	C376.691956,765.639221 371.930115,774.671265 365.573517,781.549988 
	C364.274414,772.100098 380.493561,761.601196 394.048676,763.470886 
	C383.525055,781.117859 373.221649,798.395508 362.398743,816.544312 
	C369.820618,816.544312 376.387726,816.652405 382.949951,816.518250 
	C392.108643,816.330994 401.262329,815.828674 410.420868,815.741577 
	C413.820221,815.709229 415.422913,814.864075 415.996124,811.161438 
	C416.738190,806.368164 417.158875,801.366882 419.497589,796.304993 
	C421.665192,798.543396 420.948120,800.508728 420.653320,802.357483 
	C420.260590,804.820496 419.587799,807.248230 419.331665,809.721802 
	C418.539490,817.370911 416.810699,818.979553 408.879242,819.088867 
	C408.046173,819.100342 407.213257,819.121765 405.899902,819.136292 
z"/>
<path fill="#000000" opacity="1.000000" stroke="none" 
	d="
M354.998749,856.279114 
	C325.374359,856.858154 296.250824,857.470581 267.125946,858.011169 
	C256.636108,858.205872 246.143265,858.260620 235.651474,858.321472 
	C217.354965,858.427612 199.053802,859.705078 180.763000,858.276550 
	C168.474976,857.316895 156.173340,856.993713 143.854477,857.070618 
	C143.071808,857.075500 142.165131,857.147400 141.637833,855.719849 
	C143.382050,854.135803 145.634659,853.990845 147.872070,854.036377 
	C158.632324,854.255310 169.449646,853.917786 180.137878,854.928589 
	C198.473541,856.662537 216.749146,855.258667 235.054474,855.227234 
	C247.658203,855.205566 260.234406,854.181335 272.855347,854.722107 
	C281.930084,855.110901 290.974762,853.579102 300.102997,853.777222 
	C312.667389,854.050049 325.205597,853.406433 337.769745,852.294250 
	C349.957428,851.215393 362.265442,852.902771 374.572479,852.384460 
	C397.445038,851.421143 420.355164,852.154358 443.255219,851.391418 
	C452.818298,851.072815 462.421326,849.319153 472.034302,850.781311 
	C472.984894,850.925903 473.903107,851.283020 474.842316,852.093567 
	C465.342773,854.956177 455.538025,854.140869 445.852722,854.485046 
	C435.713196,854.845459 425.567871,855.045837 415.424652,855.299011 
	C405.441895,855.548279 395.459534,855.833496 385.475250,855.997131 
	C375.484314,856.160950 365.491211,856.193787 354.998749,856.279114 
z"/>
<path fill="#000000" opacity="1.000000" stroke="none" 
	d="
M516.743530,151.668610 
	C520.715881,152.149506 524.317383,152.555908 527.681091,152.935486 
	C529.806030,151.225189 527.786804,149.765976 527.793274,148.243484 
	C530.269714,146.865768 533.014954,146.177963 535.531311,147.060654 
	C538.927734,148.252029 540.947449,147.508636 541.997742,143.550018 
	C544.492432,145.785202 546.623413,148.018036 549.585449,144.776520 
	C550.644470,143.617538 552.232300,145.869476 553.740112,145.656647 
	C558.157166,145.033203 562.199158,149.189514 567.069275,146.115372 
	C569.047302,144.866852 571.375488,147.635910 573.123169,149.569351 
	C575.552490,152.256836 577.121399,156.999481 582.630920,153.406967 
	C583.971680,152.532715 588.220825,153.763184 589.317810,155.311600 
	C592.626953,159.982758 598.215637,162.350708 601.039001,167.530975 
	C596.605530,170.700516 598.158936,174.334793 600.374329,178.335556 
	C596.478027,181.351318 593.813416,178.628464 592.591003,175.822800 
	C590.215637,170.370712 585.774597,167.863510 580.845825,165.757965 
	C566.749878,159.736359 552.026672,156.742096 536.683594,156.796280 
	C533.867432,156.806229 530.964172,156.980392 528.253906,156.384232 
	C524.134033,155.477966 521.042114,156.431854 518.644043,160.718826 
	C517.109070,157.686829 512.921082,157.730896 513.205566,153.869659 
	C513.338135,152.070251 514.548584,151.285751 516.743530,151.668610 
z"/>
<path fill="#000000" opacity="1.000000" stroke="none" 
	d="
M413.852631,859.556519 
	C404.820831,859.883911 396.209351,860.220459 387.597900,860.557922 
	C382.623505,860.752869 377.649414,860.956665 372.674713,861.143860 
	C361.626465,861.559692 350.601959,861.874573 339.528717,861.093079 
	C329.266418,860.368896 318.957245,861.224243 308.706451,862.059753 
	C297.451996,862.977173 286.207062,861.834167 274.948639,862.351868 
	C262.537628,862.922546 250.085190,863.296448 237.672379,862.960022 
	C218.586914,862.442749 199.462997,864.448608 180.417084,862.053101 
	C178.219177,861.776672 175.886917,861.795227 173.403244,860.030151 
	C274.903473,859.826416 375.652374,856.531189 476.392059,855.062683 
	C469.418457,859.003662 434.965424,861.512146 413.852631,859.556519 
z"/>
<path fill="#000000" opacity="1.000000" stroke="none" 
	d="
M280.665588,809.532227 
	C264.490509,828.545471 234.104996,824.645874 223.915466,802.416321 
	C222.233582,798.747070 220.313828,797.712952 216.605469,798.815674 
	C212.788788,799.950745 210.975739,797.904297 210.564392,794.298279 
	C209.688431,786.619019 210.838791,784.856567 218.174683,782.577332 
	C220.050461,781.994446 221.197922,780.970581 221.790329,778.925537 
	C226.935928,761.162476 244.581757,751.252380 261.127960,755.073730 
	C275.032043,758.284851 286.608612,771.001404 287.964905,785.161499 
	C288.167938,787.281067 288.521057,789.886475 287.552032,791.527100 
	C284.270203,797.083130 281.870819,802.865417 280.665588,809.532227 
M234.102386,795.004272 
	C233.924103,792.131958 236.135712,792.769043 237.566284,792.919434 
	C240.201355,793.196411 242.889999,793.579773 245.390198,794.415710 
	C255.526245,797.804810 265.903229,798.323303 276.467743,797.742432 
	C280.388153,797.526855 282.631714,795.741577 283.894226,792.268066 
	C285.013855,789.187683 284.915924,786.053589 284.281372,782.906555 
	C281.379578,768.515381 269.242584,757.983887 254.869873,757.370789 
	C240.832489,756.772034 228.383041,766.268494 224.476059,780.739380 
	C223.860794,783.018250 223.161621,784.569214 220.609085,785.259277 
	C213.251282,787.247986 213.023376,787.818848 214.761490,795.696045 
	C217.806534,796.422546 220.383362,793.699524 223.764206,794.477234 
	C224.262009,795.677490 224.870117,797.017151 225.379623,798.393311 
	C228.093994,805.724670 232.838409,811.280273 239.708542,815.049744 
	C251.299500,821.409302 267.496338,819.191101 276.252869,809.917175 
	C278.527893,807.507874 280.480133,804.490112 277.788177,801.548523 
	C275.441650,798.984375 272.762756,800.275024 270.438721,802.559265 
	C258.481445,814.311890 241.594574,811.094360 234.102386,795.004272 
M264.174652,801.396790 
	C255.760574,801.645508 248.033752,797.625854 239.865219,796.725952 
	C239.235321,798.957458 240.167328,799.981689 240.998703,800.976929 
	C245.449036,806.304565 258.340485,807.821045 264.007416,803.721680 
	C264.719330,803.206726 265.285736,802.668762 264.174652,801.396790 
z"/>
<path fill="#000000" opacity="1.000000" stroke="none" 
	d="
M272.832458,65.814896 
	C279.839966,64.351608 286.411652,65.527328 293.386261,65.440315 
	C292.717499,68.268341 292.591461,70.382942 288.765259,69.779839 
	C280.913757,68.542236 274.561646,73.004173 267.651337,75.747070 
	C268.973602,79.173950 272.910889,77.471375 274.463043,80.311874 
	C273.377472,83.272858 272.602631,84.705292 268.243958,82.916702 
	C258.349792,78.856613 248.921585,73.655586 238.645782,70.529053 
	C235.735855,69.643677 232.787262,70.738945 229.845657,70.713455 
	C230.102692,66.171928 234.573959,63.216343 239.839432,64.182358 
	C243.393326,64.834366 246.843750,66.034309 250.360397,66.908997 
	C255.958206,68.301338 261.464996,68.995140 266.967865,66.132149 
	C268.429932,65.371468 270.564941,65.904266 272.832458,65.814896 
z"/>
<path fill="#000000" opacity="1.000000" stroke="none" 
	d="
M509.793427,846.899414 
	C515.217407,846.931641 520.178955,846.931641 525.632141,846.931641 
	C528.281433,811.257019 526.550476,775.712769 530.140015,740.413391 
	C530.757324,780.319214 531.057434,820.202271 528.160400,860.350159 
	C525.037415,859.310852 526.445068,856.731079 524.821533,855.262878 
	C520.323914,854.154358 515.324768,853.915222 510.297821,853.358521 
	C514.195251,850.643860 518.699646,851.407715 522.888123,850.617493 
	C511.495667,849.528015 500.133270,851.381653 488.711823,850.520447 
	C494.968231,845.624756 502.415314,847.737061 509.793427,846.899414 
z"/>
<path fill="#000000" opacity="1.000000" stroke="none" 
	d="
M451.230743,793.002319 
	C451.626282,799.811279 449.807648,806.280273 454.451416,812.172791 
	C456.700623,815.026855 453.881317,817.777527 450.669403,817.930847 
	C442.218933,818.333984 433.731110,818.577393 425.285461,818.226440 
	C420.137817,818.012512 419.244415,815.294800 422.575928,811.425964 
	C423.828461,809.971436 424.860199,808.619507 424.820435,806.637451 
	C424.577362,794.509644 426.214844,782.408691 425.231140,770.257385 
	C424.984344,767.208923 424.264038,764.456970 421.859009,760.725098 
	C426.435333,761.669373 428.200409,763.778564 428.218842,766.907898 
	C428.298065,780.387512 428.172089,793.868713 428.062408,807.348816 
	C428.038147,810.331299 426.395874,812.640198 424.308197,814.730896 
	C433.155975,814.730896 441.828094,814.730896 451.808258,814.730896 
	C446.861450,809.489990 448.389618,804.075317 448.404449,798.913696 
	C448.437927,787.265747 448.494843,775.614807 448.813477,763.972473 
	C448.922668,759.982849 447.366241,759.089722 443.756104,759.567383 
	C437.224274,760.431519 430.665314,760.445007 423.659882,759.977417 
	C424.506317,757.049561 426.339508,757.180237 427.842407,757.129639 
	C433.496674,756.939331 439.156128,756.769592 444.812256,756.806458 
	C450.229126,756.841675 452.061310,758.642639 451.988647,764.086182 
	C451.862213,773.561279 451.497559,783.033142 451.230743,793.002319 
z"/>
<path fill="#000000" opacity="1.000000" stroke="none" 
	d="
M389.958527,757.675476 
	C397.101044,757.453186 403.749817,757.134644 410.401794,757.038940 
	C413.150909,756.999329 416.512665,756.341492 418.114777,759.281616 
	C419.779694,762.337097 417.583527,765.046387 415.991699,767.522461 
	C407.532593,780.680542 399.507507,794.093811 392.024536,807.830200 
	C391.730743,808.369507 391.683075,809.042786 391.339325,810.336121 
	C404.124939,811.568115 410.097229,802.187683 417.540741,793.265137 
	C416.208862,806.468567 398.856934,816.636292 385.252899,813.146912 
	C395.609894,795.753235 405.844360,778.565247 415.973175,761.554749 
	C415.192841,759.752502 413.870331,760.209351 412.798828,760.211548 
	C398.308807,760.241028 383.817841,760.424561 369.329651,760.290955 
	C365.417725,760.254883 364.067871,761.470398 364.128998,765.425598 
	C364.198639,769.933533 365.118652,774.624939 363.114868,779.367249 
	C360.580963,775.872192 360.111053,762.988220 362.176636,760.062378 
	C363.724518,757.869873 366.145111,757.846313 368.485229,757.820618 
	C375.478546,757.744019 382.472443,757.716064 389.958527,757.675476 
z"/>
<path fill="#000000" opacity="1.000000" stroke="none" 
	d="
M136.672668,890.488342 
	C138.036499,891.095642 139.247681,891.375122 140.682892,891.770874 
	C140.575348,893.515137 140.411530,895.462158 138.279190,895.560425 
	C136.616425,895.637146 135.884018,893.966858 134.926987,892.838684 
	C133.892349,891.619080 133.682297,890.177124 133.638489,888.642883 
	C133.367691,879.162659 132.941315,869.685120 132.804047,860.203308 
	C132.519821,840.570496 132.213135,820.913696 131.334320,801.325928 
	C130.595154,784.851440 131.509521,768.399475 130.546555,751.962280 
	C130.492783,751.044250 130.228210,749.947693 132.170715,749.065613 
	C132.082321,756.827881 132.192749,764.292542 133.860336,772.746887 
	C135.258530,769.112061 135.331940,766.319946 135.420563,763.477417 
	C137.073044,764.127197 137.108383,765.357544 137.074387,766.511658 
	C136.859192,773.818542 137.710556,781.067383 138.118515,788.341492 
	C138.245102,790.598633 138.846588,793.506836 134.827255,793.756409 
	C133.311127,793.850586 133.573578,795.695068 133.643753,797.095276 
	C134.128082,806.761414 135.050064,816.447815 134.779480,826.098206 
	C134.471588,837.079834 135.508041,847.991699 135.462814,858.951111 
	C135.419907,869.352600 136.137070,879.757202 136.672668,890.488342 
z"/>
<path fill="#000000" opacity="1.000000" stroke="none" 
	d="
M331.345886,786.081543 
	C331.337128,793.729492 331.423096,800.892151 331.288422,808.050659 
	C331.188232,813.376404 329.300964,815.551453 324.853027,816.051941 
	C330.751740,804.651733 327.115173,792.426453 327.813904,780.585083 
	C328.021637,777.064819 325.425568,775.211487 321.956299,775.100464 
	C318.044922,774.975342 316.605988,777.828430 316.432892,780.935242 
	C316.081482,787.242981 316.120026,793.582031 316.241943,799.903442 
	C316.342682,805.125183 315.416992,810.489441 319.277679,815.165588 
	C320.899323,817.129761 319.628204,819.943542 317.027100,819.974976 
	C307.237915,820.093323 297.459473,821.661438 287.662354,820.341919 
	C287.097961,820.265808 286.597229,819.716797 284.946014,818.692749 
	C296.392914,815.758667 306.897644,817.566467 317.569946,816.984436 
	C313.371460,814.304688 312.759644,810.106750 312.794403,805.583557 
	C312.857147,797.424194 312.756226,789.263672 312.805420,781.104065 
	C312.840637,775.261353 316.475891,771.512451 321.892883,771.560608 
	C327.303345,771.608704 331.055237,775.386414 331.318512,781.098389 
	C331.387482,782.594360 331.339905,784.095581 331.345886,786.081543 
z"/>
<path fill="#000000" opacity="1.000000" stroke="none" 
	d="
M130.254669,569.666382 
	C130.106094,571.751709 129.975510,573.391296 129.771149,575.957031 
	C127.582527,573.441589 127.891640,571.146973 127.873573,569.042175 
	C127.709190,549.887756 128.015320,530.718811 127.362320,511.582123 
	C126.691765,491.931122 126.850037,472.287842 126.644745,452.640900 
	C126.608910,449.211761 125.219650,445.814636 126.698967,442.347900 
	C127.284447,440.975861 127.546005,439.499603 128.935013,438.889557 
	C129.952332,439.057526 130.504395,439.733459 130.270798,440.302155 
	C126.267921,450.048218 129.007324,460.106903 129.246841,469.936737 
	C130.053223,503.030548 130.234573,536.123108 130.254669,569.666382 
z"/>
<path fill="#000000" opacity="1.000000" stroke="none" 
	d="
M482.123444,294.524658 
	C486.552032,294.593201 490.543549,294.725800 494.536102,294.793213 
	C497.322693,294.840271 499.659485,295.640717 501.286652,298.170593 
	C482.701263,296.490173 464.425690,298.499115 446.127960,299.042358 
	C439.853546,299.228668 433.550720,299.492035 427.402771,297.855804 
	C427.384888,297.384613 427.367035,296.913422 427.349182,296.442230 
	C445.461700,295.815125 463.574249,295.188019 482.123444,294.524658 
z"/>
<path fill="#000000" opacity="1.000000" stroke="none" 
	d="
M187.900620,271.900391 
	C191.355179,272.621643 194.560349,273.011444 195.927856,277.348907 
	C190.467545,278.535217 185.811249,274.910583 180.815750,275.727295 
	C175.746307,276.556122 171.710968,280.411407 166.404114,280.772491 
	C167.268326,273.700165 177.237244,269.548584 187.900620,271.900391 
z"/>
<path fill="#000000" opacity="1.000000" stroke="none" 
	d="
M501.141724,304.160095 
	C500.226105,303.466553 499.563171,302.957977 499.784393,301.974457 
	C504.935547,302.983032 511.263580,309.719391 511.553040,315.490448 
	C511.943542,323.276611 511.649994,331.097046 511.649994,339.439362 
	C509.544678,335.126251 507.760590,331.757996 508.549561,326.651703 
	C509.810059,318.493408 509.679657,309.865601 501.141724,304.160095 
z"/>
<path fill="#000000" opacity="1.000000" stroke="none" 
	d="
M139.190247,717.363403 
	C141.264648,716.081177 141.397690,717.525696 141.315277,718.665955 
	C140.206268,734.011047 141.735382,749.457214 139.478088,764.766357 
	C138.452057,749.077271 138.768677,733.380188 139.190247,717.363403 
z"/>
<path fill="#000000" opacity="1.000000" stroke="none" 
	d="
M499.723114,870.420166 
	C501.675110,870.117004 503.299103,869.355896 504.845490,870.542297 
	C498.661194,876.458252 488.960785,876.901672 481.232269,871.548035 
	C484.675476,867.479126 488.838867,869.610535 492.087158,871.037781 
	C495.031921,872.331665 497.020355,871.780212 499.723114,870.420166 
z"/>
<path fill="#000000" opacity="1.000000" stroke="none" 
	d="
M125.756752,415.983185 
	C125.917870,412.470947 125.596489,409.323975 127.567665,406.565155 
	C129.034592,416.870026 129.413559,427.145416 128.664825,437.431915 
	C128.073669,437.460876 127.482521,437.489807 126.891365,437.518738 
	C126.514214,430.493408 126.137054,423.468079 125.756752,415.983185 
z"/>
<path fill="#000000" opacity="1.000000" stroke="none" 
	d="
M367.868652,719.649170 
	C362.117767,718.418335 356.328949,720.597046 351.124390,717.162781 
	C358.541901,717.162781 365.959442,717.162781 373.752258,717.162781 
	C372.227661,718.973328 370.221497,719.282593 367.868652,719.649170 
z"/>
<path fill="#000000" opacity="1.000000" stroke="none" 
	d="
M304.364197,875.090332 
	C305.826660,875.420776 306.953522,875.668457 308.059052,875.989563 
	C309.670471,876.457703 311.375000,876.955383 311.254120,879.107239 
	C311.189056,880.265076 310.122131,880.850586 309.153351,880.826477 
	C306.729645,880.766418 304.112579,880.880615 302.737732,878.225098 
	C301.971924,876.745972 301.645874,875.316589 304.364197,875.090332 
z"/>
<path fill="#000000" opacity="1.000000" stroke="none" 
	d="
M166.607849,882.882446 
	C170.352692,882.613281 173.833023,880.957458 177.429657,882.398621 
	C173.855728,887.361389 168.646332,887.656860 166.607849,882.882446 
z"/>
<path fill="#000000" opacity="1.000000" stroke="none" 
	d="
M504.933136,347.507935 
	C505.044067,345.228302 504.194214,343.180298 505.735748,341.495178 
	C509.360565,343.684753 509.674103,344.708252 508.975769,352.273224 
	C506.514191,351.750732 505.532745,350.039581 504.933136,347.507935 
z"/>
<path fill="#000000" opacity="1.000000" stroke="none" 
	d="
M505.122192,853.396240 
	C500.784393,854.119751 496.668762,855.444824 492.583038,853.294922 
	C496.815247,851.989319 501.035950,850.479675 505.122192,853.396240 
z"/>
<path fill="#000000" opacity="1.000000" stroke="none" 
	d="
M158.891632,881.923218 
	C158.897568,880.458984 158.665237,879.277527 159.904144,877.986816 
	C161.575592,881.011536 166.390945,882.500549 163.011627,887.354553 
	C160.063507,886.804810 159.861725,884.239990 158.891632,881.923218 
z"/>
<path fill="#000000" opacity="1.000000" stroke="none" 
	d="
M660.157104,24.770172 
	C661.336060,20.694460 664.065796,22.236597 666.485352,22.608847 
	C664.759827,24.432079 663.326660,26.951571 660.157104,24.770172 
z"/>
<path fill="#000000" opacity="1.000000" stroke="none" 
	d="
M183.519440,717.606934 
	C180.410355,720.191833 178.115921,716.103149 175.177399,717.100281 
	C178.043259,715.844360 180.870209,714.729065 183.519440,717.606934 
z"/>
<path fill="#000000" opacity="1.000000" stroke="none" 
	d="
M345.496002,367.711731 
	C344.146118,367.160736 342.932068,366.930328 342.647736,365.163757 
	C345.105682,363.983887 347.127411,364.620361 349.022308,366.311188 
	C348.507660,368.519104 347.069214,367.927124 345.496002,367.711731 
z"/>
<path fill="#000000" opacity="1.000000" stroke="none" 
	d="
M251.912155,518.108887 
	C254.310593,517.903564 256.334869,517.974060 258.276917,517.608215 
	C263.077515,516.703979 264.238068,518.945923 264.394409,523.342163 
	C264.555969,527.885437 263.123566,529.306335 258.509247,529.494141 
	C249.574753,529.857849 240.644455,530.209595 231.702499,530.370972 
	C227.973114,530.438232 224.737610,530.235901 224.968170,524.558960 
	C225.161407,530.123474 222.135483,530.733582 218.315903,530.342651 
	C214.108231,529.911743 209.909531,530.051758 205.681610,530.230591 
	C199.635941,530.486450 199.038193,529.433655 198.903961,523.367676 
	C198.779053,517.721008 202.302811,517.447693 206.164093,518.192139 
	C212.226471,519.360901 218.474869,519.103760 224.432434,519.087524 
	C230.208847,519.071838 236.275192,519.645081 242.096619,518.328003 
	C245.229309,517.619263 248.356125,517.583923 251.912155,518.108887 
M257.780670,519.405090 
	C254.216064,519.688293 254.182968,522.191040 254.361084,524.834900 
	C254.506165,526.987976 255.890976,527.628540 257.769257,527.572144 
	C259.708069,527.513977 261.657715,527.075012 261.758118,524.744690 
	C261.858337,522.419495 262.577179,519.380249 257.780670,519.405090 
M228.508286,521.185242 
	C226.970642,523.366089 226.752441,525.650757 228.961243,527.336182 
	C230.459320,528.479309 232.547180,528.264771 234.204636,527.357117 
	C235.985077,526.382019 235.830505,524.484985 235.338089,522.904358 
	C234.395844,519.879761 231.931427,520.291992 229.563278,520.720703 
	C229.401306,520.750061 229.247330,520.823547 228.508286,521.185242 
M206.214355,520.466919 
	C202.260925,519.906067 201.092972,522.263611 201.505890,525.494629 
	C201.918579,528.723999 204.748383,527.844666 206.639801,527.517395 
	C209.563095,527.011536 209.640533,524.058838 206.214355,520.466919 
M214.464752,525.298218 
	C215.404495,528.788879 218.160553,528.206421 220.525650,527.700989 
	C222.853470,527.203491 222.011353,525.141541 221.887054,523.557129 
	C221.736786,521.641602 220.855942,520.493286 218.777557,520.434387 
	C215.912628,520.353210 214.391953,521.609741 214.464752,525.298218 
M245.991241,527.525696 
	C249.120148,526.656799 248.994919,524.187256 248.295364,521.958618 
	C247.583542,519.690918 245.323517,520.346924 243.586273,520.443359 
	C241.332352,520.568481 241.184021,522.237488 241.190125,524.012268 
	C241.199600,526.765808 242.563736,527.909058 245.991241,527.525696 
z"/>
<path fill="#000000" opacity="1.000000" stroke="none" 
	d="
M200.809082,396.157410 
	C197.443451,396.710785 195.158249,395.829803 193.568542,392.049805 
	C193.249512,394.866913 192.707153,396.355713 189.985062,396.111908 
	C186.614563,395.809998 183.070114,395.819061 179.788315,396.543396 
	C174.962601,397.608459 172.349258,396.325378 171.877701,391.276550 
	C171.788208,390.318573 171.822525,389.224915 170.406570,388.641113 
	C166.126160,389.575897 170.193130,395.142151 165.906952,396.632507 
	C163.739105,393.689423 164.775558,389.223724 161.085144,386.565735 
	C165.876282,383.699768 170.272980,385.966400 174.251389,385.444000 
	C176.299591,387.721619 174.325653,390.718536 176.507492,392.913879 
	C179.335312,391.052521 176.858383,387.273071 179.492630,385.403961 
	C183.301361,384.737457 187.344391,386.066254 191.528503,384.977020 
	C195.198364,384.021606 199.016907,384.780518 198.323074,390.339355 
	C198.246384,390.953918 198.430710,391.693420 199.444626,391.915619 
	C202.173813,390.453796 199.255112,386.671844 201.965073,385.158875 
	C205.474289,388.134674 205.155502,392.650696 200.809082,396.157410 
z"/>
<path fill="#000000" opacity="1.000000" stroke="none" 
	d="
M223.423523,405.146545 
	C235.108536,405.072784 246.332397,405.072784 257.556244,405.072784 
	C257.569611,405.640137 257.582947,406.207489 257.596313,406.774841 
	C226.358109,406.470337 195.283356,410.770721 163.964371,408.469299 
	C183.590042,406.677490 203.380783,407.697266 223.423523,405.146545 
z"/>
<path fill="#000000" opacity="1.000000" stroke="none" 
	d="
M178.277740,426.217285 
	C173.847778,426.443970 169.909454,425.372284 165.890381,426.150696 
	C163.991287,426.518555 162.806915,425.129913 162.757065,423.124451 
	C162.706619,421.095428 163.786179,419.851410 165.786697,420.026672 
	C173.999619,420.746277 182.299225,419.887573 190.468857,421.462799 
	C192.212814,421.799042 193.863113,421.870514 193.626160,424.262665 
	C193.400208,426.543854 191.625671,426.080505 190.211792,426.108276 
	C186.387573,426.183411 182.561981,426.188263 178.277740,426.217285 
z"/>
<path fill="#000000" opacity="1.000000" stroke="none" 
	d="
M175.383194,521.920166 
	C180.788437,522.919067 185.853378,520.919800 190.788086,522.007324 
	C192.447052,527.345398 187.802124,527.932800 185.447723,527.836182 
	C179.047363,527.573669 172.631210,529.249695 166.225128,527.806458 
	C165.133087,524.498474 165.782333,522.607605 169.631241,522.603394 
	C171.418854,522.601440 173.205917,522.116821 175.383194,521.920166 
z"/>
<path fill="#000000" opacity="1.000000" stroke="none" 
	d="
M203.835602,511.676392 
	C198.925720,511.459808 194.309891,511.565826 189.786865,510.968750 
	C187.108780,510.615204 184.689362,509.885651 182.243652,511.664734 
	C181.290817,512.357849 180.010223,512.401001 179.100449,511.316620 
	C178.371490,510.447693 178.632233,509.436554 178.920486,508.482117 
	C179.340530,507.091248 180.382690,507.130310 181.653488,507.049561 
	C189.425598,506.555847 197.177322,507.083252 204.892349,507.740143 
	C206.799652,507.902557 208.345657,506.679779 210.087906,507.161316 
	C211.597931,511.530914 211.308685,512.067505 207.509384,511.266846 
	C206.209427,510.992889 205.279236,511.602142 203.835602,511.676392 
z"/>
<path fill="#000000" opacity="1.000000" stroke="none" 
	d="
M163.738861,454.537720 
	C163.842896,451.831238 165.362457,451.768219 167.206543,451.789581 
	C174.063522,451.868988 180.921951,451.821289 187.645630,451.821289 
	C189.449829,453.831848 188.442200,455.708649 188.125366,457.870331 
	C181.411133,457.437103 174.711044,458.343262 168.346909,455.901794 
	C166.811829,455.312897 164.228760,459.763153 163.738861,454.537720 
z"/>
<path fill="#000000" opacity="1.000000" stroke="none" 
	d="
M179.649429,480.271301 
	C177.414581,482.954437 174.534027,483.142639 171.592529,483.001434 
	C169.467850,482.899414 167.350815,482.638702 165.271667,482.452454 
	C164.485214,481.128052 164.559799,479.860352 165.187393,478.226715 
	C168.193344,478.643738 171.123016,477.113525 174.084137,477.119263 
	C177.162567,477.125214 180.316284,476.129517 183.559372,477.354584 
	C184.312256,479.093231 184.372574,480.939911 183.664474,482.828918 
	C181.002060,483.373322 181.089355,481.295532 180.525558,479.860138 
	C180.492416,479.775787 180.235046,479.713715 180.111572,479.747894 
	C179.972061,479.786560 179.865982,479.945801 179.649429,480.271301 
z"/>
<path fill="#000000" opacity="1.000000" stroke="none" 
	d="
M180.971634,501.971558 
	C176.440567,504.876343 171.411407,501.757874 166.680695,503.122620 
	C165.281342,503.526306 164.779480,501.642761 164.776352,500.238068 
	C164.773712,499.050568 164.919739,497.893494 166.180130,497.328400 
	C167.468536,496.750702 168.377701,497.289917 169.069122,498.402069 
	C169.491318,499.081055 169.948792,499.738098 170.594193,500.712769 
	C174.215332,498.490784 177.645126,498.166901 180.751160,501.868591 
	C180.997330,501.997803 180.971634,501.971558 180.971634,501.971558 
z"/>
<path fill="#000000" opacity="1.000000" stroke="none" 
	d="
M168.921509,509.711060 
	C171.824097,509.124207 174.022964,506.685333 177.169540,507.996918 
	C177.826050,510.580688 175.967331,512.154114 174.138977,511.973053 
	C171.319046,511.693817 167.831497,514.019592 165.776367,511.195526 
	C163.601776,508.207275 165.385269,506.426544 168.455963,506.044830 
	C171.098724,507.490417 166.615036,508.410522 168.921509,509.711060 
z"/>
<path fill="#000000" opacity="1.000000" stroke="none" 
	d="
M220.099014,510.860809 
	C224.085251,506.016510 229.312622,509.387817 233.972900,508.861877 
	C230.221039,513.744080 225.294373,513.076294 220.082153,511.387329 
	C219.945709,511.061279 220.099014,510.860809 220.099014,510.860809 
z"/>
<path fill="#000000" opacity="1.000000" stroke="none" 
	d="
M181.009766,502.011108 
	C181.134155,500.681396 181.669876,498.476929 182.892380,499.218964 
	C187.281937,501.883392 191.172562,499.296906 195.270691,498.854065 
	C196.462555,498.725250 197.925446,498.557739 198.818375,499.892944 
	C193.609283,504.693359 187.616592,502.675415 181.382538,502.002106 
	C180.971634,501.971558 180.997330,501.997803 181.009766,502.011108 
z"/>
<path fill="#000000" opacity="1.000000" stroke="none" 
	d="
M197.566376,458.100159 
	C194.496887,458.072296 191.315460,459.109680 190.417160,455.085205 
	C190.227402,454.235016 190.013184,453.479462 190.736359,452.821167 
	C191.393250,452.223267 192.527786,451.759155 192.899139,452.506958 
	C194.412430,455.554321 195.484665,451.913818 197.238007,452.548279 
	C198.058273,454.053986 200.379333,455.511261 197.566376,458.100159 
z"/>
<path fill="#000000" opacity="1.000000" stroke="none" 
	d="
M172.027588,490.442200 
	C171.689621,493.842194 168.716873,493.490601 166.617188,494.151611 
	C165.212616,494.593781 164.798111,493.091400 164.774261,491.872223 
	C164.749191,490.591339 164.411285,489.121979 165.753845,488.281708 
	C167.143234,487.412079 168.129868,488.239716 169.191666,489.201385 
	C169.853516,489.800842 170.934387,489.937653 172.027588,490.442200 
z"/>
<path fill="#000000" opacity="1.000000" stroke="none" 
	d="
M205.847992,498.778168 
	C207.942505,499.346039 211.629486,496.644379 210.947845,501.380829 
	C209.288422,502.778168 207.738419,498.884033 206.200958,501.625580 
	C205.256851,503.309052 203.555466,503.439331 201.864136,502.858582 
	C200.977966,502.554291 200.646317,501.719360 200.906509,500.849426 
	C201.619354,498.466034 203.793823,499.171570 205.847992,498.778168 
z"/>
<path fill="#000000" opacity="1.000000" stroke="none" 
	d="
M234.259766,499.199066 
	C236.183685,498.994537 238.254547,498.291595 238.581604,500.570007 
	C238.834305,502.330444 237.184250,503.094147 235.530670,502.657806 
	C233.891022,502.225159 231.152069,504.210083 230.768707,501.016174 
	C230.516617,498.915985 232.381973,499.002930 234.259766,499.199066 
z"/>
<path fill="#000000" opacity="1.000000" stroke="none" 
	d="
M176.918167,436.366241 
	C175.903275,434.255707 176.453262,432.780975 178.493088,432.559601 
	C180.730759,432.316650 180.917725,434.206390 181.139420,435.876831 
	C179.986282,437.222137 178.627777,437.196686 176.918167,436.366241 
z"/>
<path fill="#000000" opacity="1.000000" stroke="none" 
	d="
M219.870270,511.162415 
	C218.084793,511.067535 215.884293,513.507751 214.735764,510.583771 
	C214.080780,508.916290 213.136093,506.687164 216.335144,505.966034 
	C217.981277,507.061035 217.611099,509.690826 219.866821,510.672546 
	C220.099014,510.860809 219.945709,511.061279 219.870270,511.162415 
z"/>
<path fill="#000000" opacity="1.000000" stroke="none" 
	d="
M172.722366,432.553223 
	C174.977325,432.448975 174.620575,433.714966 174.118134,434.765564 
	C173.339493,436.393707 172.599365,436.477600 169.088531,435.707031 
	C169.033356,433.391602 170.422165,432.670197 172.722366,432.553223 
z"/>
<path fill="#000000" opacity="1.000000" stroke="none" 
	d="
M274.730042,781.592651 
	C276.120300,789.042542 276.069702,789.017151 269.202789,789.244995 
	C264.836273,789.389893 260.519073,788.930969 256.368408,787.826599 
	C248.887634,785.836121 241.444382,783.749390 233.643448,783.488159 
	C235.208801,772.597656 244.106277,768.031555 251.770462,766.907043 
	C260.827393,765.578125 269.951385,771.276428 274.730042,781.592651 
M247.912247,771.157593 
	C243.654495,772.770020 240.092880,775.092163 238.463043,779.985657 
	C245.507523,781.674316 252.104736,783.150330 258.638397,784.868103 
	C261.741699,785.683899 264.836823,786.038696 267.987427,785.745728 
	C271.199890,785.446899 272.343353,784.058594 270.763245,780.739136 
	C266.895935,772.614746 258.201416,768.629944 247.912247,771.157593 
z"/>
</svg>